<svg width="240" height="26" viewBox="0 0 240 26" fill="none" xmlns="http://www.w3.org/2000/svg">
<path d="M3.17189 16.2494C3.39481 17.1384 3.69203 18.0274 4.06355 18.8424C4.28647 19.3609 4.50938 19.8795 4.58369 20.3981C4.65799 20.6945 4.7323 20.9167 4.8066 21.213C5.02952 22.1761 5.32674 23.2133 5.69826 24.1023C5.77256 24.2505 5.84687 24.3987 5.92118 24.5468C5.99548 24.695 6.2184 24.7691 6.36701 24.7691C6.51562 24.7691 6.66422 24.695 6.81283 24.6209C7.70449 24.1764 8.67046 23.806 9.63642 23.4356C10.0823 23.2874 10.5281 23.1392 10.9739 22.917C11.6427 22.6206 12.3857 22.3984 13.0544 22.2502C13.6489 22.102 14.3176 21.8798 14.9121 21.6575C15.5808 21.4353 16.3239 21.139 16.9926 20.9167C17.2898 20.7685 17.6614 20.7685 17.9586 20.9167C18.4044 21.139 18.8502 21.213 19.2961 21.3612C19.5933 21.4353 19.8162 21.5094 20.1134 21.5835C20.9308 21.9539 21.7481 22.1761 22.5655 22.3243C23.0856 22.4725 23.6801 22.5466 24.2002 22.6947C24.7946 22.8429 25.4634 22.9911 26.0578 23.2133C26.5036 23.3615 26.9495 23.4356 27.3953 23.5096C27.7668 23.5837 28.2127 23.6578 28.5842 23.7319C28.9557 23.806 29.4015 23.8801 29.7731 23.9541C29.996 24.0282 30.2189 23.8801 30.2932 23.7319C30.3675 23.5837 30.4418 23.4356 30.4418 23.2874C30.5161 22.9911 30.5904 22.6947 30.6647 22.3984C30.739 22.2502 30.8133 22.028 30.8876 21.8798C30.8876 21.8057 31.0362 21.7316 31.1105 21.7316C31.1849 21.7316 31.2592 21.8057 31.2592 21.8057C31.3335 21.9539 31.4078 22.1761 31.4821 22.3243C31.5564 22.5466 31.7793 22.6206 32.0022 22.6206C32.1508 22.6206 32.3737 22.5465 32.5223 22.4725C33.0425 22.3243 33.5626 22.1761 34.1571 22.102C34.5286 22.028 34.9744 21.9539 35.3459 21.8798C36.5348 21.5835 37.7237 21.2871 38.9126 21.139C39.2098 21.0649 39.507 21.0649 39.8042 20.9908C40.8445 20.6945 41.8848 20.3981 42.925 20.1759C43.1479 20.1018 43.3709 20.1018 43.5195 20.0277C43.8167 19.9536 44.1139 19.8795 44.4111 19.8054C45.1542 19.6573 45.8972 19.5091 46.566 19.3609C46.7889 19.2869 47.0118 19.2869 47.1604 19.2128C47.309 19.1387 47.4576 18.9905 47.4576 18.8424C47.4576 18.546 47.3833 18.3238 47.309 18.1015C47.0118 16.9903 46.7889 15.879 46.7889 14.7677C46.7889 14.2491 46.7146 13.8046 46.566 13.2861C46.3431 12.2489 46.1201 11.2117 45.8229 10.1745C45.3771 8.54468 45.0056 6.91484 44.7827 5.21091C44.7827 5.06274 44.7084 4.91457 44.7084 4.7664C44.4111 3.87739 44.1882 2.98839 44.0396 2.09938C43.9653 1.72896 43.891 1.35854 43.6681 1.0622C43.4452 0.691782 43.1479 0.469531 42.7764 0.469531C42.4792 0.469531 42.182 0.46953 41.8848 0.543614C41.4389 0.617698 40.9931 0.617698 40.6216 0.691782C40.473 0.691782 40.2501 0.765868 40.1014 0.765868C39.1355 0.98812 38.2438 1.21037 37.2779 1.35854C36.1633 1.50671 35.0487 1.72896 33.8598 1.80304C33.6369 1.80304 33.3397 1.87713 33.1168 1.95121C32.0765 2.17346 30.9619 2.32163 29.9217 2.54388C29.7731 2.54388 29.6988 2.54388 29.5501 2.61797C29.2529 2.69205 29.03 2.61797 28.7328 2.54388C28.5099 2.4698 28.287 2.39571 28.064 2.32163C27.6925 2.17346 27.2467 2.0253 26.8752 1.87713C25.9835 1.65488 25.0918 1.35854 24.2002 1.13629C23.903 1.0622 23.5314 0.988118 23.2342 0.914034C22.3426 0.765866 21.3766 0.6177 20.4849 0.395448C19.9648 0.321364 19.519 0.321364 18.9988 0.395448C18.9245 0.395448 18.8502 0.395447 18.7016 0.469531C18.553 0.543615 18.4044 0.6177 18.4044 0.765868C18.3301 0.98812 18.2558 1.21037 18.1815 1.43262C18.1072 1.58079 17.81 1.65488 17.7357 1.50671C17.6614 1.43262 17.587 1.28445 17.5127 1.21037C17.3641 0.988119 17.2898 0.691783 17.2155 0.469531C17.0669 0.0250272 16.844 -0.0490556 16.4725 0.0250283C16.3982 0.0250283 16.3239 0.0250272 16.1753 0.0991111C15.5808 0.247279 15.0607 0.469532 14.4662 0.617699C12.8315 1.13629 11.2711 1.72896 9.63642 2.17346C9.48781 2.24755 9.2649 2.32163 9.11629 2.32163C8.00171 2.69205 6.81283 3.13655 5.69826 3.43289C5.40104 3.50697 5.02952 3.65514 4.7323 3.80331C3.98925 4.17373 3.2462 4.54415 2.42884 4.84049C2.13162 4.91457 1.8344 5.06274 1.61149 5.21091C1.16566 5.43316 0.71983 5.65541 0.348305 5.95175C-0.0232197 6.24808 -0.0975255 6.39625 0.125389 6.84075C0.273999 7.13709 0.422609 7.50751 0.496914 7.87793C0.719829 8.76694 0.942745 9.58186 1.16566 10.4709C1.23996 10.9154 1.38857 11.3599 1.46288 11.8044C1.7601 12.8416 2.13162 13.8046 2.50315 14.7677C2.87467 15.2863 3.02328 15.8049 3.17189 16.2494ZM31.5564 3.13655C31.5564 3.06247 31.6307 2.98839 31.6307 2.98839C31.8536 2.84022 32.0022 2.84022 32.2251 2.76613C33.414 2.61796 34.5286 2.4698 35.7175 2.32163C36.2376 2.24755 36.832 2.17346 37.3522 2.09938C38.3181 1.95121 39.2841 1.72896 40.2501 1.50671C40.3987 1.50671 40.5473 1.43262 40.6959 1.43262C41.216 1.35854 41.6619 1.28445 42.182 1.28445C42.3306 1.28445 42.4792 1.28445 42.5535 1.28445C43.0736 1.28445 43.3709 1.35854 43.4452 1.87713C43.5195 2.0253 43.5195 2.24754 43.5195 2.39571C43.5938 3.06247 43.7424 3.65514 43.891 4.3219C44.0396 4.84049 44.1139 5.43316 44.1882 5.95175C44.3368 7.063 44.5597 8.17426 44.7827 9.28552C45.0056 10.1745 45.2285 10.9895 45.4514 11.8785C45.6743 12.6193 45.8229 13.2861 45.8972 14.0269C45.9715 14.3232 45.9715 14.6937 45.9715 15.0641C45.9715 15.7308 46.0458 16.3235 46.1945 16.9903C46.2688 17.4348 46.4174 17.9533 46.4917 18.4719C46.4917 18.6201 46.4174 18.8424 46.1945 18.9164C46.0458 18.9905 45.9715 18.9905 45.8229 19.0646C45.3771 19.1387 45.0056 19.2128 44.5597 19.2869C44.0396 19.3609 43.5195 19.435 42.9993 19.5832C42.7764 19.6573 42.5535 19.6573 42.3306 19.7314C41.9591 19.8054 41.5875 19.8795 41.216 19.9536C40.5473 20.1018 39.8785 20.324 39.1355 20.4722C38.9869 20.5463 38.8383 20.5463 38.6896 20.5463C37.5008 20.6945 36.3119 20.9908 35.123 21.2871C34.6772 21.3612 34.2314 21.5094 33.7855 21.5835C33.2654 21.6575 32.8196 21.7316 32.2994 21.8798C32.0022 21.9539 31.7793 21.8798 31.6307 21.6575C31.4078 21.3612 31.2592 21.0649 31.1105 20.7685C31.0362 20.6204 30.9619 20.3981 31.0362 20.2499C31.0362 20.1759 31.0362 20.1018 31.1105 20.1018C31.4078 19.1387 31.4821 19.0646 32.448 18.7683C34.0084 18.3978 35.4945 17.9533 36.9806 17.5088C37.6494 17.2866 38.3181 17.1384 38.9869 17.0643C39.6556 16.9162 40.3987 16.768 41.0674 16.6198C41.216 16.6198 41.4389 16.5458 41.5875 16.5458C42.182 16.4717 42.8507 16.3976 43.4452 16.3235C43.8167 16.2494 44.1882 16.1753 44.4854 16.0272C44.7084 15.9531 44.9313 15.7308 44.9313 15.5086C44.9313 15.3604 45.0056 15.2122 45.0056 15.0641C45.0799 14.9159 45.0799 14.6937 45.0056 14.5455C44.857 13.9528 44.7827 13.3601 44.634 12.7675C44.5597 12.4711 44.5597 12.2489 44.5597 11.9525C44.5597 11.3599 44.4111 10.8413 44.1882 10.3227C43.9653 9.80411 43.8167 9.21144 43.6681 8.61877C43.5195 7.95201 43.2966 7.35934 43.0736 6.76667C42.9993 6.54442 42.925 6.39625 42.8507 6.174C42.7764 5.80358 42.6278 5.50724 42.4049 5.13682C41.9591 4.39598 41.8105 3.65514 41.7362 2.84022C41.7362 2.69205 41.7362 2.61797 41.6618 2.4698C41.6618 2.39571 41.5875 2.39571 41.5132 2.32163C41.4389 2.32163 41.3646 2.24755 41.216 2.24755C41.0674 2.24755 40.8445 2.24755 40.6959 2.32163C39.8042 2.4698 38.9126 2.61796 38.0209 2.76613C37.2779 2.84022 36.5348 2.98838 35.8661 3.13655C35.5688 3.21064 35.3459 3.21064 35.0487 3.21064C34.5286 3.21064 34.0084 3.28472 33.4883 3.35881C33.1168 3.43289 32.8196 3.50697 32.5223 3.58106C32.0765 3.72923 31.6307 3.58106 31.1849 3.35881C31.6307 3.35881 31.5564 3.21064 31.5564 3.13655ZM35.6431 4.3219C35.4945 4.3219 35.3459 4.24781 35.1973 4.24781C35.0487 4.24781 34.9744 4.17373 34.8258 4.17373C34.7515 4.17373 34.6772 4.02556 34.7515 3.95148C34.7515 3.87739 34.8258 3.80331 34.8258 3.80331C34.9744 3.72923 35.0487 3.72923 35.1973 3.72923C36.0147 3.65514 36.832 3.58106 37.6494 3.43289C37.798 3.43289 37.8723 3.35881 38.0209 3.43289C38.8383 3.43289 39.6556 3.28472 40.473 3.13655C40.6959 3.06247 40.9931 3.06247 41.1417 3.06247C41.2903 3.06247 41.3646 3.06247 41.4389 3.06247C41.5875 3.06247 41.7362 3.21064 41.8105 3.35881C41.8848 3.43289 41.8848 3.50697 41.8848 3.65514C41.9591 4.17373 42.1077 4.69232 42.3306 5.13682C42.4792 5.50724 42.6278 5.87766 42.7021 6.24808C42.7764 6.47033 42.8507 6.69258 42.925 6.98892C43.1479 7.65567 43.2966 8.32243 43.4452 8.98919C43.5195 9.43369 43.6681 9.87819 43.8167 10.3227C44.0396 10.9895 44.1882 11.5821 44.2625 12.323C44.2625 12.9156 44.4111 13.4342 44.5597 13.9528C44.634 14.2491 44.7084 14.6196 44.7084 14.9159C44.7084 15.1382 44.5597 15.3604 44.4111 15.4345C43.9653 15.5827 43.5195 15.6567 43.0736 15.7308C42.7764 15.6567 42.4792 15.6567 42.182 15.6567C41.216 15.7308 40.3244 16.0272 39.3584 16.1753C38.2438 16.3976 37.2036 16.6939 36.1633 16.9903C35.4945 17.2125 34.7515 17.4348 34.0827 17.657C33.7112 17.8052 33.3397 17.8793 32.8939 17.9533C32.8196 17.9533 32.7453 17.9533 32.5966 17.9533C32.448 17.9533 32.2994 17.8052 32.2994 17.657C32.2994 17.5088 32.2994 17.3607 32.2994 17.2125C32.3737 16.768 32.5223 16.3976 32.5966 15.9531C32.8939 14.9159 33.2654 13.8787 33.5626 12.8416C33.6369 12.6193 33.7112 12.4711 33.7855 12.2489C34.1571 11.508 34.38 10.6931 34.5286 9.8782C34.8258 8.24835 35.1973 6.69258 35.7175 5.13682C35.7918 4.98865 35.7918 4.7664 35.8661 4.61823C35.9404 4.61823 35.7918 4.3219 35.6431 4.3219ZM18.6273 3.58106C18.7016 2.9143 18.7759 2.32163 18.8502 1.65487C18.8502 1.58079 18.8502 1.50671 18.9245 1.35854C18.9988 1.13629 19.2218 0.914034 19.4447 0.914034C19.519 0.914034 19.5933 0.914034 19.7419 0.914034C20.1877 0.914034 20.6336 1.0622 21.0794 1.13629C21.5995 1.28446 22.1196 1.35854 22.6398 1.50671C23.4571 1.65488 24.2002 1.87713 24.9432 2.09938C25.5377 2.24755 26.1321 2.4698 26.7266 2.61797C27.2467 2.76613 27.7668 2.98839 28.287 3.21064C28.9557 3.50697 29.6988 3.72922 30.3675 3.87739C30.8876 3.95148 31.3335 4.09964 31.7793 4.24781C32.1508 4.3219 32.5223 4.47007 32.9682 4.54415C33.5626 4.61823 34.0827 4.84048 34.6772 4.98865C34.9001 5.06274 35.0487 5.35907 34.9744 5.58133C34.9744 5.65541 34.9744 5.72949 34.9001 5.72949C34.8258 5.87766 34.7515 6.09991 34.6772 6.24808C34.4543 6.69258 34.3057 7.063 34.2314 7.58159C34.0084 8.32243 33.7855 9.06327 33.6369 9.80411C33.4883 10.5449 33.2654 11.2858 32.8939 12.0266C32.5966 12.6193 32.448 13.212 32.2251 13.8787C32.0765 14.2491 31.9279 14.6937 31.8536 15.1382C31.6307 15.8049 31.4821 16.4717 31.3335 17.2125C31.1849 17.8793 31.0362 18.4719 30.8133 19.0646C30.4418 19.9536 30.1446 20.9167 29.996 21.8798C29.9217 22.102 29.9217 22.3984 29.8474 22.6206C29.8474 22.7688 29.7731 22.8429 29.6988 22.917C29.6244 23.0651 29.4015 23.1392 29.2529 23.1392C29.1786 23.1392 29.1043 23.0651 28.9557 23.0651C28.5842 22.917 28.2127 22.8429 27.7668 22.7688C27.2467 22.6947 26.6523 22.6206 26.1321 22.3984C25.4634 22.1761 24.7203 22.028 23.9773 21.8798C23.3085 21.7316 22.7141 21.5835 22.0453 21.4353C21.228 21.213 20.4106 20.9167 19.5933 20.6945C19.519 20.6945 19.519 20.6204 19.4447 20.6204C19.3704 20.5463 19.3704 20.324 19.4447 20.324C19.519 20.2499 19.6676 20.1759 19.7419 20.1759C20.4849 19.9536 21.228 19.6573 21.971 19.435C22.194 19.3609 22.4169 19.3609 22.6398 19.3609C22.937 19.3609 23.0856 19.2128 23.2342 18.9905C23.3085 18.9164 23.3828 18.7683 23.4571 18.6942C23.6058 18.546 23.7544 18.4719 23.9773 18.546C24.1259 18.546 24.2002 18.6201 24.3488 18.6942C25.0175 18.9905 25.7606 19.2128 26.5036 19.3609C27.1724 19.5091 27.9154 19.6573 28.5842 19.8795C28.6585 19.8795 28.7328 19.9536 28.8814 19.9536C29.03 19.9536 29.1786 19.9536 29.3272 19.8795C29.6244 19.7314 29.8474 19.5091 29.996 19.2869C30.1446 18.9905 30.2189 18.6942 30.2932 18.3979C30.4418 17.7311 30.6647 17.0643 31.0362 16.3976C31.2592 15.9531 31.3335 15.5086 31.4078 15.0641C31.4821 14.101 31.7793 13.1379 32.1508 12.2489C32.2251 12.1007 32.2251 12.0266 32.2994 11.8785C32.5966 11.2117 32.7453 10.545 32.8939 9.8782C32.9682 9.35961 33.1911 8.76693 33.3397 8.24835C33.4883 7.80384 33.6369 7.35934 33.7855 6.91484C33.8598 6.69258 33.8598 6.47033 33.8598 6.174C33.8598 6.02583 33.7855 5.87766 33.6369 5.80358C33.4883 5.72949 33.3397 5.65541 33.1911 5.65541C32.448 5.43316 31.6307 5.2109 30.8876 4.98865C30.2932 4.84048 29.7731 4.69232 29.1786 4.54415C28.3613 4.3219 27.5439 4.09965 26.7266 3.72923C25.7606 3.28472 24.7203 2.98838 23.6057 2.9143C23.2342 2.84022 22.7884 2.76613 22.4169 2.69205C21.8967 2.54388 21.3766 2.4698 20.8565 2.39571C20.4106 2.32163 20.0391 2.54388 19.8905 2.9143C19.7419 3.13655 19.6676 3.43289 19.519 3.65514C19.4447 3.87739 19.3704 4.09964 19.2218 4.24781C19.1475 4.3219 19.0731 4.3219 18.9988 4.3219C18.9245 4.3219 18.8502 4.24781 18.8502 4.09965C18.6273 3.80331 18.6273 3.65514 18.6273 3.58106ZM22.0453 13.0638C21.7481 12.4711 21.5252 11.8785 21.3766 11.2858C21.228 10.6931 21.0051 10.1745 20.7079 9.65594C20.3363 9.06327 20.1134 8.39652 19.9648 7.65568C19.8905 7.063 19.6676 6.54442 19.519 5.95175C19.4447 5.80358 19.4447 5.58132 19.4447 5.43316C19.4447 5.28499 19.519 5.13682 19.519 4.98865C19.7419 4.3219 19.8905 3.72923 20.1134 3.06247C20.1877 2.9143 20.1877 2.84022 20.3363 2.76613C20.4849 2.69205 20.6336 2.61797 20.7822 2.61797C21.228 2.69205 21.5995 2.76613 22.0453 2.9143C22.5655 3.13655 23.1599 3.28472 23.7544 3.35881C24.646 3.50697 25.5377 3.72923 26.2807 4.17373C27.0238 4.54415 27.9154 4.84049 28.7328 5.06274C30.0703 5.35907 31.3335 5.80358 32.671 6.174C32.8196 6.174 32.8939 6.24808 33.0425 6.32217C33.1911 6.39625 33.2654 6.6185 33.2654 6.84075C33.1911 6.98892 33.1911 7.13709 33.1168 7.28526C32.9682 7.50751 32.8939 7.80384 32.7453 8.0261C32.5223 8.54468 32.2994 9.13736 32.1508 9.65594C32.0022 10.3968 31.705 11.1376 31.4078 11.8044C31.1106 12.397 30.9619 12.9897 30.8133 13.6565C30.739 13.9528 30.6647 14.2491 30.6647 14.5455C30.5904 15.2122 30.4418 15.8049 30.1446 16.3976C29.9217 16.8421 29.7731 17.3607 29.6245 17.8793C29.5501 18.1756 29.4758 18.3978 29.3272 18.6942C29.2529 18.9164 28.9557 19.0646 28.7328 18.9905C28.6585 18.9905 28.5842 18.9905 28.5842 18.9905C27.6925 18.8424 26.8009 18.6201 25.9835 18.4719C25.4634 18.3978 25.0175 18.2497 24.5717 18.0274C24.4231 17.9533 24.3488 17.9533 24.2002 17.8793C23.7544 17.7311 23.5314 17.5088 23.4571 17.0643C23.3828 16.8421 23.3085 16.6939 23.1599 16.4717C23.0113 16.1753 22.937 15.879 22.8627 15.5827C22.6398 14.6937 22.4169 13.8787 22.0453 13.0638ZM2.13162 10.619C1.8344 9.35961 1.53718 8.17426 1.09135 6.98892C1.01705 6.84075 1.01705 6.76667 1.01705 6.6185C1.01705 6.47033 1.09135 6.39625 1.16566 6.32217C1.23996 6.24808 1.38857 6.17399 1.46288 6.09991C2.94898 5.43316 4.43508 4.69232 5.92118 4.02556C6.21839 3.87739 6.51561 3.80331 6.88714 3.65514C8.67046 3.06247 10.5281 2.4698 12.3114 1.87713C13.426 1.50671 14.6149 1.21037 15.8037 0.914034C15.9523 0.914034 16.0266 0.839951 16.1753 0.839951C16.4725 0.765867 16.6954 0.914035 16.844 1.21037C16.9926 1.58079 17.1412 1.95121 17.2898 2.32163C17.3641 2.54388 17.4384 2.69205 17.5127 2.9143C17.587 3.43289 17.81 3.95148 17.9586 4.39598C18.6273 6.32216 19.3704 8.24835 20.0391 10.1004C20.1877 10.619 20.4106 11.0635 20.5592 11.5821C21.0794 13.2861 21.6738 15.0641 22.194 16.768C22.2683 17.0643 22.3426 17.2866 22.3426 17.4348C22.3426 17.8052 22.194 18.1015 21.8967 18.2497C21.3023 18.4719 20.7079 18.6942 20.0391 18.9164C19.0731 19.2128 18.0329 19.5832 17.0669 19.8795C16.2496 20.1759 15.4322 20.4722 14.6149 20.7685C13.9461 20.9908 13.2031 21.213 12.5343 21.4353C12.0142 21.5835 11.494 21.7316 10.9739 21.9539C10.1566 22.2502 9.41351 22.5465 8.67046 22.8429C8.07602 23.0651 7.55588 23.2874 6.96144 23.5837C6.73853 23.7319 6.44131 23.5837 6.36701 23.3615C6.2184 22.9911 6.06979 22.6947 5.99548 22.3243C5.77257 21.5835 5.62395 20.8426 5.40104 20.1018C5.25243 19.5832 5.10382 19.0646 4.88091 18.546C4.50938 17.7311 4.21216 16.8421 3.98925 15.9531C3.84064 15.4345 3.69203 14.9159 3.46911 14.3973C3.09759 13.5083 2.72606 12.5452 2.42884 11.6562C2.35454 11.2858 2.20593 10.9895 2.13162 10.619Z" fill="#B89559"/>
<path d="M4.43507 13.4342C4.73229 14.3973 5.02951 15.3604 5.47534 16.3235C5.69826 16.8421 5.77256 17.2866 5.92117 17.8052C6.06978 18.3238 6.367 18.7683 6.44131 19.2869C6.44131 19.435 6.51561 19.5091 6.58992 19.6573C6.66422 19.8054 6.81283 19.8795 6.96144 19.8795C7.03575 19.8795 7.11005 19.8795 7.25866 19.8054C7.48158 19.7314 7.70449 19.5832 7.9274 19.5832C8.96767 19.2869 9.93364 18.9905 10.8996 18.6201C11.6427 18.3978 12.3857 18.1756 13.0544 17.8793C14.0947 17.4348 15.135 17.2125 16.1753 16.768C17.3641 16.4717 18.553 15.9531 19.6676 15.5827C19.8162 15.5086 20.0391 15.4345 20.1877 15.3604C20.3363 15.2863 20.4106 15.1382 20.4106 14.9159C20.4106 14.7677 20.4106 14.5455 20.3363 14.3232C20.1134 13.5824 19.8905 12.8416 19.5933 12.1007C19.4447 11.7303 19.3704 11.434 19.2218 11.0635C19.0731 10.619 18.9245 10.1004 18.7016 9.65594C18.4787 8.98919 18.1815 8.32243 17.8843 7.65568C17.7357 7.28526 17.587 6.84075 17.4384 6.47033C16.9926 5.50724 16.6211 4.47006 16.2496 3.43289C16.1009 3.13655 16.0266 2.76613 16.0266 2.4698C16.0266 2.39571 16.0266 2.32163 15.9523 2.17346C15.9523 2.02529 15.7294 1.87713 15.5808 1.87713C15.4322 1.87713 15.3579 1.87713 15.2093 1.95121C14.9121 2.02529 14.6892 2.09938 14.3919 2.24755C13.7232 2.4698 13.1288 2.69205 12.46 2.9143C11.0482 3.3588 9.56211 3.80331 8.15032 4.39598C7.92741 4.47006 7.7788 4.54415 7.55588 4.61823C6.88714 4.84048 6.2927 5.06274 5.62395 5.28499C4.8809 5.50724 4.21216 5.80358 3.46911 6.174C3.02328 6.39625 2.65176 6.69258 2.20593 6.98892C1.90871 7.21117 1.8344 7.50751 1.98301 7.80384C2.05732 7.95201 2.13162 8.10018 2.20593 8.24835C2.57745 9.06327 2.87467 9.80411 3.09758 10.6931C3.24619 11.2858 3.46911 11.8044 3.69202 12.323C4.13785 12.6193 4.28646 12.9897 4.43507 13.4342ZM3.09758 7.95201C3.02328 7.87793 3.02328 7.80384 3.02328 7.72976C2.94898 7.58159 3.02328 7.35934 3.17189 7.21117C3.24619 7.13709 3.3205 7.063 3.39481 7.063C3.69202 6.91484 3.91494 6.76667 4.21216 6.6185C4.8809 6.24808 5.62395 6.02583 6.367 5.80358C6.96144 5.58132 7.55588 5.43316 8.15032 5.2109C8.29893 5.13682 8.44754 5.13682 8.59615 5.06274C10.0822 4.47007 11.6427 3.95148 13.2031 3.43289C13.7975 3.28472 14.3176 3.06247 14.8378 2.84022C14.9864 2.76613 15.135 2.76613 15.2093 2.76613C15.4322 2.76613 15.5808 2.84022 15.6551 2.98839C15.7294 3.06247 15.8037 3.21064 15.878 3.28472C16.0266 3.58106 16.101 3.87739 16.1753 4.17373C16.5468 5.35907 16.9183 6.54442 17.3641 7.65568C17.587 8.32243 17.8843 9.06327 18.1815 9.73003C18.4044 10.2486 18.6273 10.8413 18.7759 11.3599C18.9245 11.8044 19.0731 12.323 19.2218 12.7675C19.3704 13.212 19.4447 13.5824 19.5933 14.0269C19.5933 14.101 19.5933 14.1751 19.5933 14.3232C19.5933 14.5455 19.519 14.7677 19.2961 14.8418C19.2218 14.9159 19.0731 14.99 18.9245 14.99C17.9586 15.3604 16.9926 15.6567 16.0266 15.9531C14.9121 16.2494 13.8718 16.6198 12.7572 17.0643C12.2371 17.2866 11.6427 17.5088 11.1225 17.657C10.1566 17.9533 9.26489 18.3238 8.29893 18.6201C8.07602 18.6942 7.8531 18.7683 7.70449 18.7683C7.48158 18.7683 7.33297 18.6942 7.18436 18.546C6.96144 18.2497 6.73853 17.8793 6.66422 17.4348C6.44131 16.4717 6.06978 15.6567 5.69826 14.7677C5.54965 14.3973 5.40104 13.9528 5.25243 13.5824C5.02951 12.9156 4.8066 12.323 4.50938 11.7303C4.28646 11.3599 4.13785 10.9154 4.06355 10.5449C3.91494 9.65594 3.61772 8.76693 3.09758 7.95201Z" fill="#B89559"/>
<path d="M24.0516 12.8416C24.2745 13.0638 24.5717 13.0638 24.8689 12.9897C24.9432 12.9897 25.0175 12.9156 25.0919 12.8416C25.5377 12.5452 25.9835 12.397 26.4293 12.1748C27.321 11.7303 28.1384 11.0635 28.7328 10.2486C28.8814 10.0264 29.03 9.80411 29.1786 9.50777C29.3272 9.21144 29.2529 8.9151 29.03 8.61877C28.6585 8.10018 28.064 7.80384 27.3953 7.87793C27.0238 7.87793 26.578 8.0261 26.2064 8.17426C26.0578 8.24835 25.9092 8.32243 25.6863 8.39652C25.4634 8.4706 25.2405 8.4706 25.0919 8.39652C24.7203 8.24835 24.2745 8.02609 23.903 7.87793C23.5314 7.72976 23.1599 7.72976 22.7884 7.72976C22.2683 7.80384 21.8967 8.10018 21.6738 8.61877C21.5995 8.84102 21.5995 9.06327 21.5252 9.21144C21.5995 9.43369 21.5995 9.65594 21.6738 9.87819C21.8224 10.3227 22.0453 10.7672 22.3426 11.0635C22.7884 11.508 23.2342 12.0266 23.6801 12.4711C23.903 12.6193 23.9773 12.7675 24.0516 12.8416ZM22.6398 10.3227C22.3426 9.95228 22.2683 9.50777 22.3426 9.06327C22.4169 8.61877 22.7141 8.24835 23.3085 8.32243C23.3828 8.32243 23.4571 8.32243 23.6058 8.39652C23.903 8.54468 24.2745 8.61877 24.5717 8.76694C24.7946 8.84102 25.0175 8.98919 25.1662 9.21144C25.2405 9.35961 25.3148 9.43369 25.4634 9.50777C25.5377 9.50777 25.6863 9.58186 25.7606 9.50777C25.8349 9.43369 25.9835 9.28552 26.0578 9.13736C26.5779 8.61877 27.1724 8.39651 27.9154 8.4706C28.1384 8.4706 28.287 8.54468 28.4356 8.69285C28.6585 8.84102 28.7328 9.21144 28.5842 9.43369C28.4356 9.65594 28.287 9.87819 28.064 10.1004C27.4696 10.7672 26.7266 11.2858 25.9092 11.6562C25.5377 11.8044 25.2405 12.0266 24.9432 12.1748C24.7946 12.2489 24.4974 12.2489 24.3488 12.1007C24.1259 12.1007 24.0516 12.0266 24.0516 11.9525C23.7544 11.5821 23.4571 11.2117 23.1599 10.9154C22.937 10.7672 22.7884 10.5449 22.6398 10.3227Z" fill="#B89559"/>
<path d="M28.287 13.8046C27.9897 13.5824 27.6182 13.5083 27.2467 13.7306C27.0981 13.8046 26.9495 13.8787 26.8752 13.9528C26.6523 14.101 26.4293 14.1751 26.2064 14.101C26.1321 14.101 26.0578 14.101 25.8349 14.101C25.7606 14.101 25.5377 14.101 25.3148 14.101C25.1662 14.101 24.9432 14.1751 24.7946 14.2491C24.4231 14.3973 24.2745 14.7677 24.3488 15.1382C24.4231 15.5086 24.5717 15.8049 24.8689 15.9531C25.4634 16.4717 26.1321 16.8421 26.8752 17.1384C27.0238 17.2125 27.2467 17.2125 27.3953 17.0643C27.8411 16.6198 28.2127 16.1753 28.4356 15.6567C28.5842 15.4345 28.6585 15.1382 28.7328 14.9159C28.7328 14.8418 28.8071 14.7677 28.8071 14.6196C28.6585 14.3232 28.5842 14.0269 28.287 13.8046ZM27.9897 14.8418C27.8411 15.4345 27.5439 15.879 27.0981 16.3235C27.0238 16.3235 26.9495 16.3976 26.8752 16.3976C26.7266 16.4717 26.6523 16.4717 26.5036 16.3976C25.9092 16.1753 25.3891 15.8049 25.0175 15.3604C24.7946 15.1382 24.8689 14.7677 25.1662 14.6937C25.3148 14.6196 25.4634 14.6196 25.612 14.5455C25.8349 14.5455 25.9835 14.6196 26.1321 14.6196C26.2807 14.6196 26.4293 14.6937 26.5779 14.7677C26.8009 14.8418 26.9495 14.7677 27.0981 14.6196C27.2467 14.5455 27.321 14.3973 27.3953 14.3232C27.5439 14.1751 27.8411 14.3232 27.9154 14.5455C27.9897 14.6937 27.9897 14.7677 27.9897 14.8418Z" fill="#B89559"/>
<path d="M22.4912 4.69232C22.4912 4.47007 22.3426 4.3219 22.2683 4.3219C22.1196 4.3219 21.971 4.24781 21.8224 4.24781C21.4509 4.3219 21.0051 4.39598 20.6336 4.39598C20.5592 4.39598 20.4849 4.47007 20.4849 4.47007C20.3363 4.54415 20.1877 4.69232 20.1877 4.91457C20.1877 5.2109 20.262 5.43316 20.4849 5.50724C20.7822 5.65541 21.0051 5.80358 21.3023 5.95174C21.3766 6.02583 21.5252 5.95174 21.5995 5.87766C21.8224 5.58132 22.1197 5.28499 22.3426 4.91457C22.4169 4.91457 22.4169 4.7664 22.4912 4.69232ZM21.3766 5.21091C21.3766 5.28499 21.3023 5.35907 21.3023 5.35907C21.0794 5.43315 20.8565 5.28499 20.7822 5.13682C20.7822 5.06274 20.9308 4.91457 21.0051 4.91457C21.1537 4.91457 21.3023 5.06274 21.3766 5.13682C21.3766 5.2109 21.3766 5.21091 21.3766 5.21091Z" fill="#B89559"/>
<path d="M39.8042 10.7672C39.6556 10.7672 39.4327 10.6931 39.2841 10.6931C39.1355 10.6931 38.9126 10.619 38.6896 10.619C38.541 10.6931 38.3924 10.6931 38.2438 10.7672C37.9466 10.9154 37.6494 11.1376 37.4265 11.434C37.1292 11.8044 37.1292 12.2489 37.4265 12.6193C37.5008 12.6934 37.5008 12.7675 37.5751 12.8416C37.8723 13.1379 38.1695 13.4342 38.3924 13.6565C38.541 13.8046 38.6897 13.8787 38.8383 13.9528C39.2098 14.101 39.5813 14.3232 39.9528 14.4714C40.1014 14.5455 40.3244 14.4714 40.3987 14.3232C40.6959 13.7306 41.216 13.2861 41.7362 12.7675C41.9591 12.5452 42.182 12.323 42.3306 12.1007C42.4792 11.9525 42.5535 11.8044 42.6278 11.6562C42.7021 11.434 42.7764 11.2117 42.7021 11.0635C42.4792 10.1745 41.6618 9.87819 40.9188 10.2486C40.7702 10.3227 40.6959 10.3968 40.5473 10.5449C40.473 10.619 40.3244 10.6931 40.2501 10.7672C40.1014 10.7672 39.9528 10.7672 39.8042 10.7672ZM40.6959 11.8044C40.6959 11.6562 40.6959 11.508 40.7702 11.3599C40.8445 11.1376 40.9931 10.9154 41.216 10.7672C41.2903 10.6931 41.4389 10.6931 41.5875 10.6931C41.9591 10.6931 42.2563 11.0635 42.0334 11.434C41.9591 11.5821 41.8105 11.7303 41.7362 11.8785C41.2903 12.397 40.7702 12.8416 40.3244 13.3601C40.2501 13.4342 40.2501 13.4342 40.1757 13.5083C39.9528 13.6565 39.8042 13.6565 39.5813 13.5824C39.4327 13.5083 39.2098 13.4342 39.0612 13.2861C38.6896 12.9897 38.3924 12.6934 38.1695 12.397C38.0209 12.1748 38.0209 11.8785 38.2438 11.6562C38.4667 11.434 38.6897 11.3599 38.9869 11.3599C39.3584 11.3599 39.7299 11.508 40.0271 11.8044C40.1014 11.8785 40.1758 11.9525 40.3244 12.0266C40.3987 12.1007 40.6959 12.0266 40.6959 11.8044Z" fill="#B89559"/>
<path d="M37.3522 8.17426C37.798 8.54468 38.2438 8.76693 38.764 8.98919C39.0612 9.13735 39.2841 8.98919 39.507 8.84102C39.6556 8.69285 39.8042 8.4706 39.9528 8.24835C40.2501 7.87793 40.3244 7.43342 40.3244 6.91484C40.3244 6.24808 39.7299 5.72949 39.0612 6.174C38.9126 6.24808 38.764 6.39625 38.6154 6.47033C38.541 6.54441 38.3924 6.54442 38.2438 6.54442C38.1695 6.54442 38.0952 6.54442 37.9466 6.54442C37.798 6.54442 37.7237 6.54442 37.5751 6.54442C37.3522 6.54442 37.1293 6.6185 36.9806 6.76667C36.6834 6.98892 36.6091 7.28525 36.832 7.58159C36.9806 7.80384 37.1293 8.0261 37.3522 8.17426ZM37.5751 7.28526C37.6494 7.21117 37.798 7.13709 37.8723 7.13709C38.0209 7.28525 38.2438 7.35934 38.3924 7.50751C38.4667 7.58159 38.6154 7.50751 38.6154 7.43342C38.6897 7.35934 38.764 7.21117 38.8383 7.13709C38.9126 7.063 38.9869 6.91483 39.0612 6.84075C39.1355 6.76667 39.2098 6.69258 39.2841 6.69258C39.507 6.54442 39.8042 6.69258 39.8785 6.98892C39.8785 7.063 39.8785 7.13709 39.8785 7.21117C39.8785 7.28525 39.8042 7.50751 39.8042 7.58159C39.6556 7.80384 39.5813 8.0261 39.4327 8.17426C39.2841 8.39652 38.9869 8.39651 38.764 8.32243C38.3924 8.17426 38.0209 7.95201 37.6494 7.65568C37.5751 7.58159 37.5751 7.58159 37.5751 7.50751C37.5008 7.43342 37.5008 7.35934 37.5751 7.28526Z" fill="#B89559"/>
<path d="M7.70449 12.9897C8.67046 13.5824 9.63642 14.0269 10.751 14.2491C11.0482 14.3232 11.4197 14.3973 11.717 14.4714C11.9399 14.5455 12.0885 14.6196 12.3114 14.6937C12.46 14.7677 12.6086 14.6937 12.7572 14.6196C12.9058 14.5455 13.0544 14.3973 13.2031 14.2491C13.3517 14.0269 13.426 13.8046 13.5746 13.5824C13.7975 13.212 14.0204 12.9156 14.169 12.5452C14.4662 12.1007 14.7635 11.5821 15.0607 11.1376C15.5808 10.3968 15.6551 9.50777 15.6551 8.69285C15.6551 8.54468 15.6551 8.39652 15.5808 8.24835C15.2093 7.58159 14.6892 7.13709 13.8718 7.13709C13.5746 7.13709 13.2774 7.21117 12.9801 7.28526C12.7572 7.35934 12.6086 7.50751 12.3857 7.58159C11.9399 7.80384 11.5683 8.10018 11.2711 8.54468C11.1968 8.61877 11.1225 8.76693 11.0482 8.84102C10.8996 8.98919 10.751 8.98919 10.6024 8.98919C10.1566 8.84102 9.78503 8.76693 9.3392 8.84102C9.11629 8.84102 8.89337 8.84102 8.67046 8.84102C8.00171 8.9151 7.33297 9.21144 6.88714 9.65594C6.66422 9.8782 6.51561 10.1745 6.51561 10.4709C6.51561 10.619 6.51561 10.8413 6.58992 10.9895C6.66422 11.9525 7.03575 12.5452 7.70449 12.9897ZM7.63019 10.1004C7.92741 9.80411 8.29893 9.65594 8.74476 9.65594C8.89337 9.65594 9.11629 9.65594 9.2649 9.58186C9.93364 9.50777 10.5281 9.65594 11.1225 10.1004C11.2711 10.1745 11.4197 10.2486 11.494 10.3227C11.5683 10.3968 11.717 10.3227 11.8656 10.2486C11.9399 10.1745 11.9399 10.1004 11.9399 10.0264C11.8656 9.8782 11.8656 9.73003 11.7913 9.58186C11.717 9.35961 11.7913 9.06327 11.9399 8.9151C12.0885 8.76694 12.1628 8.61877 12.3114 8.54468C12.6829 8.32243 13.0544 8.10018 13.426 7.95201C14.169 7.65567 15.135 8.24835 15.0607 9.21144C15.0607 9.80411 14.9121 10.3227 14.6149 10.7672C14.3176 11.2117 14.0204 11.7303 13.7232 12.1748C13.426 12.6193 13.1288 13.0638 12.9058 13.5083C12.8315 13.5824 12.7572 13.7306 12.6829 13.8046C12.5343 14.0269 12.3114 14.101 12.0885 14.0269C11.9399 14.0269 11.8656 14.0269 11.717 13.9528C11.2711 13.8046 10.8996 13.7306 10.4538 13.5824C9.56212 13.2861 8.74476 12.9156 8.00171 12.323C7.40727 11.9525 7.18436 11.3599 7.25866 10.6931C7.33297 10.4709 7.40727 10.2486 7.63019 10.1004Z" fill="#B89559"/>
<path d="M64.6184 15.6774L64.4773 15.577C63.3488 14.914 62.0188 14.8738 60.8097 15.356C59.9028 15.7176 58.8751 15.9386 57.8272 15.9386C53.5953 15.9386 50.1695 12.7842 50.1695 8.64527C50.1695 4.50634 53.5953 1.3519 57.8272 1.3519H58.593C61.2127 1.3519 63.5503 2.89898 64.5982 5.26983H61.6157C60.1648 3.05972 57.8877 1.79393 55.8322 2.27613C53.1117 2.91907 52.1444 6.13378 53.2527 9.75033C54.3611 13.4071 57.1219 15.6975 59.8222 15.0546C60.8903 14.7934 61.7568 14.0902 62.3211 13.1459V10.2124H60.2857V9.20785H64.6184V15.6774ZM66.2104 8.64527C66.2104 4.52643 69.6362 1.3519 73.8479 1.3519C78.1 1.3519 81.5056 4.52643 81.5056 8.64527C81.5056 12.7842 78.1 15.9386 73.8479 15.9386C69.6362 15.9386 66.2104 12.7842 66.2104 8.64527ZM69.2735 9.75033C70.3818 13.4071 73.1628 15.6774 75.843 15.0546C78.5635 14.4317 79.8532 11.1568 78.765 7.52013C77.6768 3.8634 74.5734 1.69347 71.873 2.31632C69.1727 2.93917 68.1651 6.13378 69.2735 9.75033ZM82.8357 15.6774V15.135C83.5007 14.4317 83.8634 13.4673 83.8634 12.5029V4.80772C83.8634 3.8433 83.5007 2.87889 82.8357 2.17567V1.6131H87.128V2.17567C86.4428 2.87889 86.1003 3.8433 86.1003 4.80772V14.7532H89.2641C90.3321 14.7532 91.3599 14.4317 92.2063 13.8089H92.8511V15.6774H82.8357ZM93.6572 15.6774V15.135C94.3222 14.4117 94.685 13.4673 94.685 12.4828V4.80772C94.685 3.8433 94.3222 2.87889 93.6572 2.17567V1.6131H98.8967C102.927 1.6131 106.172 4.76753 106.172 8.66537C106.172 12.523 102.927 15.6774 98.8967 15.6774H93.6572ZM96.8815 15.0747H98.8967C101.577 15.0747 103.733 12.1815 103.733 8.66537C103.733 5.089 101.577 2.23595 98.8967 2.23595H96.8815V15.0747ZM107.502 15.6774V15.135C108.167 14.4117 108.509 13.4673 108.509 12.4828V4.80772C108.509 3.8433 108.167 2.87889 107.502 2.17567V1.6131H117.477L117.598 4.20496H116.65C115.28 3.11999 113.628 2.55742 111.935 2.55742H110.726V8.38408H113.749V9.30831H110.726V14.7331H111.915C113.547 14.7331 115.119 14.1906 116.469 13.2262L116.65 13.0856H117.598L117.477 15.6373V15.6774H107.502ZM118.988 15.6774V15.135L119.311 14.7934C119.673 14.4117 119.875 13.9696 119.875 13.4272V4.06431C119.875 3.58211 119.714 3.0999 119.411 2.77843L118.847 2.19577V1.6131H122.051L130.253 14.3313V3.58211C130.253 3.05972 130.051 2.57751 129.628 2.19577V1.6131H132.047V2.19577L131.724 2.51724C131.341 2.8588 131.12 3.3611 131.12 3.86339V15.6774H128.943L120.983 3.32091H120.761V13.7285C120.761 14.2509 121.003 14.7532 121.386 15.135V15.6774H118.988ZM147.241 10.0919L146.979 8.22334C148.551 8.02242 150.143 7.88178 152.037 7.88178C153.831 7.88178 155.644 8.02242 157.418 8.28362L160.037 1.6131H162.234L167.03 13.7084C167.111 13.8893 167.232 14.05 167.353 14.1505L168.481 15.0948V15.6774H164.189V15.0948L164.289 15.0345C164.753 14.7532 164.995 14.1103 164.773 13.5879L163.685 10.8353C161.811 10.1723 159.896 9.66996 157.942 9.3284L156.209 13.7687C156.027 14.2107 156.188 14.713 156.531 15.0948V15.6774H154.133V15.0948L155.04 14.1505C155.12 14.05 155.201 13.9295 155.261 13.8089L157.075 9.18776C155.402 8.94665 153.73 8.8261 152.037 8.8261C150.344 8.8261 149.155 9.02702 147.926 10.0115L147.241 10.0919ZM152.48 11.8399H154.274C153.025 14.2308 150.485 15.8784 147.523 15.8784C143.352 15.8784 139.946 12.6637 139.946 8.60509C139.946 4.48625 143.352 1.41218 147.523 1.41218H148.329C150.888 1.41218 153.206 2.99944 154.193 5.37029H151.271C150.042 3.48165 148.228 2.25604 146.475 2.25604C143.936 2.25604 142.546 4.16477 142.546 6.91737C142.546 11.3778 145.669 15.0948 148.611 15.0948C150.566 15.0948 151.936 13.7687 152.48 11.8399ZM163.242 9.66996L160.501 2.8588L158.304 8.42426C159.977 8.70555 161.629 9.12748 163.242 9.66996ZM169.227 15.6774V15.135C169.892 14.4317 170.254 13.4874 170.254 12.5029V4.80772C170.254 3.82321 169.892 2.87889 169.227 2.17567V1.6131H175.373C177.65 1.6131 179.625 3.3611 179.746 5.5913C179.947 8.0827 177.993 10.1924 175.514 10.1924H172.431V12.5029C172.431 13.4874 172.834 14.4317 173.499 15.135V15.6774H169.227ZM172.431 9.50923H174.809C176.824 9.50923 178.476 7.90187 178.476 5.89268C178.476 3.88349 176.824 2.25604 174.809 2.25604H172.431V9.50923ZM184.824 15.6774V15.0948C185.509 14.3916 185.872 13.4272 185.872 12.4627V2.57751H184.038C183.091 2.57751 182.164 2.95926 181.499 3.68257H180.371V1.6131H193.57V3.68257H192.442C191.817 2.95926 190.87 2.57751 189.923 2.57751H188.089V12.4627C188.089 13.4272 188.452 14.3916 189.137 15.0948V15.6774H184.824ZM191.998 8.8261V7.13838C191.998 6.5959 191.797 6.05342 191.414 5.65158L190.95 5.16937V4.6068H195.263V5.16937L194.759 5.65158C194.376 6.01323 194.195 6.5959 194.195 7.13838V8.62518C194.195 12.1212 195.888 14.5523 198.306 14.5523C201.308 14.5523 202.699 12.1212 202.699 8.62518V3.82321C202.699 3.22045 202.417 2.6177 201.913 2.19577V1.6131H204.351V2.19577C203.868 2.6177 203.606 3.22045 203.606 3.82321V8.64527C203.606 12.5833 201.591 15.7779 198.205 15.7779C194.799 15.7779 191.998 13.6482 191.998 8.8261ZM205.621 15.6774V15.135L206.407 14.2911C206.568 14.1103 206.669 13.8893 206.669 13.6482V3.68257C206.669 3.44146 206.568 3.20036 206.407 3.03963L205.621 2.19577V1.6131H211.928C214.387 1.6131 216.342 3.68257 216.181 6.17397C216.06 8.44435 214.024 10.1924 211.787 10.1924H211.284L212.795 10.4736L214.931 13.166C215.415 13.7687 216.019 14.3313 216.664 14.7934L217.128 15.135V15.6774H213.339V15.135C213.641 14.7532 213.641 14.2509 213.339 13.9295L210.316 10.1924H208.865V13.9897L209.893 15.135V15.6774H205.621ZM208.865 9.50923H211.223C213.238 9.50923 214.871 7.90187 214.871 5.89268C214.871 3.88349 213.238 2.27613 211.223 2.27613H208.865V9.50923ZM218.216 15.6774V15.135C218.881 14.4117 219.223 13.4673 219.223 12.4828V4.80772C219.223 3.8433 218.881 2.87889 218.216 2.17567V1.6131H228.191L228.312 4.20496H227.365C225.994 3.11999 224.342 2.55742 222.649 2.55742H221.44V8.38408H224.463V9.30831H221.44V14.7331H222.629C224.261 14.7331 225.833 14.1906 227.183 13.2262L227.365 13.0856H228.312L228.191 15.6373V15.6774H218.216ZM229.561 14.4317V12.5833H230.67L231.617 13.6482C232.463 14.5925 233.572 14.7733 234.902 14.7934C236.494 14.7934 237.985 14.271 237.985 12.9449C237.985 11.3175 235.164 9.73024 233.551 8.8261C232.161 8.04252 229.823 6.93746 229.823 5.26983C229.823 2.17567 233.733 1.6131 234.821 1.6131C236.171 1.6131 237.541 1.91448 238.992 2.51724L239.033 4.3456H237.884L237.219 3.54192C236.574 2.77843 235.587 2.33641 234.619 2.33641C232.907 2.33641 231.959 3.54192 231.959 4.22505C231.959 5.65158 234.861 6.67627 237.683 8.52472C239.275 9.5695 240 10.8152 240 11.9805C240 13.9495 238.005 15.7377 234.962 15.7377C231.274 15.7377 229.561 14.4317 229.561 14.4317Z" fill="#B89559"/>
<path d="M56.4319 25.999C56.2216 25.999 56.0245 25.9592 55.8408 25.8796C55.6571 25.8 55.4968 25.692 55.36 25.5556C55.2231 25.4191 55.1148 25.2593 55.035 25.0762C54.9552 24.893 54.9153 24.6966 54.9153 24.4869C54.9153 24.2797 54.9552 24.0858 55.035 23.9051C55.1148 23.7245 55.2231 23.5678 55.36 23.4352C55.4968 23.3025 55.6571 23.1983 55.8408 23.1225C56.0245 23.0467 56.2216 23.0088 56.4319 23.0088C56.6346 23.0088 56.8272 23.0461 57.0097 23.1206C57.1921 23.1952 57.3556 23.3044 57.5 23.4484C57.5355 23.4838 57.5532 23.5242 57.5532 23.5697C57.5532 23.6152 57.5355 23.6544 57.5 23.6872C57.4671 23.72 57.4278 23.7365 57.3822 23.7365C57.3366 23.7365 57.2973 23.72 57.2643 23.6872C57.1503 23.5735 57.0223 23.4876 56.8804 23.4295C56.7385 23.3714 56.589 23.3423 56.4319 23.3423C56.2672 23.3423 56.1132 23.372 55.9701 23.4314C55.8269 23.4908 55.7021 23.5716 55.5957 23.6739C55.4892 23.7763 55.4056 23.8969 55.3448 24.0359C55.284 24.1748 55.2536 24.3252 55.2536 24.4869C55.2536 24.6486 55.2846 24.8008 55.3467 24.9435C55.4088 25.0863 55.493 25.2107 55.5995 25.3168C55.7059 25.4229 55.8307 25.5069 55.9739 25.5688C56.117 25.6307 56.2697 25.6617 56.4319 25.6617C56.589 25.6617 56.7385 25.6326 56.8804 25.5745C57.0223 25.5164 57.1503 25.4318 57.2643 25.3206C57.2973 25.2852 57.3366 25.2676 57.3822 25.2676C57.4278 25.2676 57.4671 25.2852 57.5 25.3206C57.5355 25.3535 57.5532 25.3926 57.5532 25.4381C57.5532 25.4836 57.5355 25.5227 57.5 25.5556C57.3556 25.6996 57.1921 25.8095 57.0097 25.8853C56.8272 25.9611 56.6346 25.999 56.4319 25.999ZM62.711 25.9838C62.6907 25.9939 62.6692 25.999 62.6464 25.999C62.6134 25.999 62.5824 25.9902 62.5532 25.9725C62.5241 25.9548 62.5032 25.9295 62.4905 25.8967L62.1902 25.1918H60.8104L60.5101 25.8967C60.4924 25.9396 60.462 25.9699 60.4189 25.9876C60.3758 26.0053 60.3327 26.004 60.2897 25.9838C60.2466 25.9661 60.2162 25.9358 60.1984 25.8929C60.1807 25.8499 60.182 25.807 60.2022 25.764L60.5443 24.9568L61.3464 23.0846C61.359 23.0518 61.3793 23.0265 61.4072 23.0088C61.4351 22.9911 61.4667 22.9823 61.5022 22.9823C61.5352 22.9823 61.5656 22.9911 61.5934 23.0088C61.6213 23.0265 61.6416 23.0518 61.6543 23.0846C61.8468 23.5344 62.0382 23.9809 62.2282 24.4243C62.4183 24.8677 62.6096 25.3143 62.8022 25.764C62.8199 25.807 62.8199 25.8499 62.8022 25.8929C62.7844 25.9358 62.754 25.9661 62.711 25.9838ZM61.5022 23.5811L60.9549 24.8545H62.0458L61.5022 23.5811ZM66.3711 24.6839L65.8693 24.6839V25.8322C65.8693 25.8777 65.8528 25.9169 65.8199 25.9497C65.787 25.9826 65.7477 25.999 65.7021 25.999C65.6539 25.999 65.6134 25.9826 65.5804 25.9497C65.5475 25.9169 65.531 25.8777 65.531 25.8322V23.1756C65.531 23.1301 65.5475 23.0909 65.5804 23.0581C65.6134 23.0252 65.6539 23.0088 65.7021 23.0088H66.3711C66.4876 23.0088 66.5972 23.0309 66.6999 23.0751C66.8025 23.1194 66.8918 23.1794 66.9678 23.2552C67.0439 23.331 67.104 23.4194 67.1484 23.5204C67.1927 23.6215 67.2149 23.7302 67.2149 23.8464C67.2149 23.9626 67.1927 24.0712 67.1484 24.1723C67.104 24.2734 67.0439 24.3618 66.9678 24.4376C66.8918 24.5134 66.8025 24.5734 66.6999 24.6176C66.5972 24.6618 66.4876 24.6839 66.3711 24.6839ZM66.3711 23.3423H65.8693V24.3466H66.3711C66.4395 24.3466 66.5047 24.3334 66.5668 24.3068C66.6289 24.2803 66.6827 24.2443 66.7284 24.1988C66.774 24.1533 66.8101 24.1003 66.8367 24.0397C66.8633 23.979 66.8766 23.9146 66.8766 23.8464C66.8766 23.7782 66.8633 23.7131 66.8367 23.6512C66.8101 23.5893 66.774 23.5356 66.7284 23.4901C66.6827 23.4447 66.6289 23.4086 66.5668 23.3821C66.5047 23.3556 66.4395 23.3423 66.3711 23.3423ZM71.3767 23.3423H70.761V25.8322C70.761 25.8777 70.7445 25.9169 70.7116 25.9497C70.6786 25.9826 70.6393 25.999 70.5937 25.999C70.5456 25.999 70.505 25.9826 70.4721 25.9497C70.4391 25.9169 70.4227 25.8777 70.4227 25.8322V23.3423H69.8069C69.7613 23.3423 69.722 23.3265 69.6891 23.295C69.6561 23.2634 69.6396 23.2236 69.6396 23.1756C69.6396 23.1301 69.6561 23.0909 69.6891 23.0581C69.722 23.0253 69.7613 23.0088 69.8069 23.0088H71.3767C71.4224 23.0088 71.4616 23.0253 71.4946 23.0581C71.5275 23.0909 71.544 23.1301 71.544 23.1756C71.544 23.2236 71.5275 23.2634 71.4946 23.295C71.4616 23.3265 71.4224 23.3423 71.3767 23.3423ZM75.3751 25.999C75.2155 25.999 75.066 25.9687 74.9266 25.908C74.7872 25.8474 74.665 25.7653 74.5598 25.6617C74.4546 25.5581 74.3717 25.4362 74.3108 25.296C74.25 25.1558 74.2196 25.0061 74.2196 24.8469V23.1756C74.2196 23.1301 74.2361 23.0909 74.269 23.0581C74.302 23.0252 74.3425 23.0088 74.3907 23.0088C74.4363 23.0088 74.4756 23.0252 74.5085 23.0581C74.5414 23.0909 74.5579 23.1301 74.5579 23.1756V24.8469C74.5579 24.9606 74.5795 25.0667 74.6225 25.1652C74.6656 25.2638 74.7239 25.3497 74.7974 25.4229C74.8709 25.4962 74.9577 25.5543 75.0578 25.5973C75.1578 25.6402 75.2636 25.6617 75.3751 25.6617C75.4892 25.6617 75.5956 25.6402 75.6944 25.5973C75.7933 25.5543 75.8801 25.4962 75.9548 25.4229C76.0296 25.3497 76.0885 25.2631 76.1316 25.1633C76.1746 25.0635 76.1962 24.9581 76.1962 24.8469V23.1756C76.1962 23.1301 76.2126 23.0909 76.2456 23.0581C76.2785 23.0253 76.3178 23.0088 76.3634 23.0088C76.4116 23.0088 76.4521 23.0253 76.4851 23.0581C76.518 23.0909 76.5345 23.1301 76.5345 23.1756V24.8469C76.5345 25.0061 76.5041 25.1558 76.4433 25.296C76.3824 25.4362 76.2994 25.5581 76.1943 25.6617C76.0891 25.7653 75.9662 25.8474 75.8256 25.908C75.6849 25.9687 75.5348 25.999 75.3751 25.999ZM80.3428 24.6839L80.2972 24.6839L80.3466 24.5968L81.0346 25.7451C81.0498 25.7729 81.0574 25.8019 81.0574 25.8322C81.0574 25.8777 81.041 25.9169 81.008 25.9497C80.9751 25.9826 80.9358 25.999 80.8902 25.999C80.8598 25.999 80.8313 25.9914 80.8047 25.9762C80.778 25.9611 80.7571 25.9409 80.7419 25.9156L80.0045 24.6839H79.8411V25.8322C79.8411 25.8777 79.8246 25.9169 79.7917 25.9497C79.7587 25.9826 79.7194 25.999 79.6738 25.999C79.6257 25.999 79.5851 25.9826 79.5522 25.9497C79.5192 25.9169 79.5028 25.8777 79.5028 25.8322V23.1756C79.5028 23.1301 79.5192 23.0909 79.5522 23.0581C79.5851 23.0252 79.6257 23.0088 79.6738 23.0088H80.3428C80.4594 23.0088 80.569 23.0309 80.6716 23.0751C80.7742 23.1194 80.8636 23.1794 80.9396 23.2552C81.0156 23.331 81.0758 23.4194 81.1201 23.5204C81.1645 23.6215 81.1867 23.7302 81.1867 23.8464C81.1867 23.9626 81.1645 24.0712 81.1201 24.1723C81.0758 24.2734 81.0156 24.3618 80.9396 24.4376C80.8636 24.5134 80.7742 24.5734 80.6716 24.6176C80.569 24.6618 80.4594 24.6839 80.3428 24.6839ZM80.3428 23.3423H79.8411V24.3466H80.3428C80.4112 24.3466 80.4765 24.3334 80.5386 24.3068C80.6007 24.2803 80.6545 24.2443 80.7001 24.1988C80.7457 24.1533 80.7818 24.1003 80.8085 24.0397C80.8351 23.979 80.8484 23.9146 80.8484 23.8464C80.8484 23.7782 80.8351 23.7131 80.8085 23.6512C80.7818 23.5893 80.7457 23.5356 80.7001 23.4901C80.6545 23.4447 80.6007 23.4086 80.5386 23.3821C80.4765 23.3556 80.4112 23.3423 80.3428 23.3423ZM84.0751 25.999C84.027 25.999 83.9864 25.9826 83.9535 25.9497C83.9206 25.9169 83.9041 25.8777 83.9041 25.8322V23.1756C83.9041 23.1301 83.9206 23.0909 83.9535 23.0581C83.9864 23.0253 84.027 23.0088 84.0751 23.0088C84.1207 23.0088 84.16 23.0253 84.193 23.0581C84.2259 23.0909 84.2424 23.1301 84.2424 23.1756V25.8322C84.2424 25.8777 84.2259 25.9169 84.193 25.9497C84.16 25.9826 84.1207 25.999 84.0751 25.999ZM89.0618 25.999C88.9985 25.999 88.9503 25.9725 88.9174 25.9194L87.5452 23.7516V25.8322C87.5452 25.8777 87.5293 25.9169 87.4977 25.9497C87.466 25.9826 87.4261 25.999 87.3779 25.999C87.3323 25.999 87.293 25.9826 87.2601 25.9497C87.2271 25.9169 87.2107 25.8777 87.2107 25.8322V23.1756C87.2107 23.1301 87.2271 23.0909 87.2601 23.0581C87.293 23.0253 87.3323 23.0088 87.3779 23.0088C87.4413 23.0088 87.4894 23.0341 87.5224 23.0846L88.8946 25.2524V23.1756C88.8946 23.1301 88.9104 23.0909 88.9421 23.0581C88.9738 23.0253 89.0137 23.0088 89.0618 23.0088C89.1074 23.0088 89.1467 23.0253 89.1796 23.0581C89.2126 23.0909 89.2291 23.1301 89.2291 23.1756V25.8322C89.2291 25.8777 89.2126 25.9169 89.1796 25.9497C89.1467 25.9826 89.1074 25.999 89.0618 25.999ZM94.7061 25.5556C94.5616 25.6996 94.3976 25.8095 94.2138 25.8853C94.0301 25.9611 93.8356 25.999 93.6304 25.999C93.42 25.999 93.223 25.9592 93.0393 25.8796C92.8556 25.8 92.6953 25.692 92.5585 25.5556C92.4216 25.4191 92.3133 25.2593 92.2335 25.0762C92.1536 24.893 92.1137 24.6965 92.1137 24.4868C92.1137 24.2771 92.1536 24.0826 92.2335 23.9032C92.3133 23.7238 92.4223 23.5678 92.5604 23.4352C92.6985 23.3025 92.8594 23.1983 93.0431 23.1225C93.2268 23.0467 93.4226 23.0088 93.6304 23.0088C93.8356 23.0088 94.0301 23.0467 94.2138 23.1225C94.3976 23.1983 94.5616 23.3082 94.7061 23.4522C94.739 23.4851 94.7555 23.5242 94.7555 23.5697C94.7555 23.6152 94.739 23.6544 94.7061 23.6872C94.6706 23.7226 94.6301 23.7403 94.5845 23.7403C94.5388 23.7403 94.4996 23.7226 94.4666 23.6872C94.3526 23.576 94.2246 23.4908 94.0827 23.4314C93.9408 23.372 93.79 23.3423 93.6304 23.3423C93.4682 23.3423 93.3155 23.3714 93.1723 23.4295C93.0292 23.4876 92.9044 23.5678 92.7979 23.6701C92.6915 23.7725 92.6072 23.8937 92.5452 24.034C92.4831 24.1742 92.452 24.3252 92.452 24.4869C92.452 24.6486 92.4831 24.8008 92.5452 24.9435C92.6072 25.0863 92.6915 25.2107 92.7979 25.3168C92.9044 25.4229 93.0292 25.5069 93.1723 25.5688C93.3155 25.6307 93.4682 25.6617 93.6304 25.6617C93.7774 25.6617 93.918 25.6364 94.0523 25.5859C94.1866 25.5354 94.3082 25.4621 94.4172 25.3661V24.6536H93.6494C93.6012 24.6536 93.5607 24.6372 93.5277 24.6043C93.4948 24.5715 93.4783 24.5323 93.4783 24.4869C93.4783 24.4389 93.4948 24.3984 93.5277 24.3656C93.5607 24.3327 93.6012 24.3163 93.6494 24.3163H94.5845C94.6326 24.3163 94.6731 24.3327 94.7061 24.3656C94.739 24.3984 94.7555 24.4389 94.7555 24.4869V25.4381C94.7555 25.4836 94.739 25.5227 94.7061 25.5556ZM103.904 25.5556C103.76 25.6996 103.596 25.8095 103.412 25.8853C103.228 25.9611 103.034 25.999 102.828 25.999C102.618 25.999 102.421 25.9592 102.237 25.8796C102.054 25.8 101.893 25.692 101.756 25.5556C101.62 25.4191 101.511 25.2593 101.431 25.0762C101.352 24.893 101.312 24.6965 101.312 24.4868C101.312 24.2771 101.352 24.0826 101.431 23.9032C101.511 23.7238 101.62 23.5678 101.758 23.4352C101.896 23.3025 102.057 23.1983 102.241 23.1225C102.425 23.0467 102.621 23.0088 102.828 23.0088C103.034 23.0088 103.228 23.0467 103.412 23.1225C103.596 23.1983 103.76 23.3082 103.904 23.4522C103.937 23.4851 103.953 23.5242 103.953 23.5697C103.953 23.6152 103.937 23.6544 103.904 23.6872C103.869 23.7226 103.828 23.7403 103.782 23.7403C103.737 23.7403 103.698 23.7226 103.665 23.6872C103.551 23.576 103.423 23.4908 103.281 23.4314C103.139 23.372 102.988 23.3423 102.828 23.3423C102.666 23.3423 102.513 23.3714 102.37 23.4295C102.227 23.4876 102.102 23.5678 101.996 23.6701C101.889 23.7725 101.805 23.8937 101.743 24.034C101.681 24.1742 101.65 24.3252 101.65 24.4869C101.65 24.6486 101.681 24.8008 101.743 24.9435C101.805 25.0863 101.889 25.2107 101.996 25.3168C102.102 25.4229 102.227 25.5069 102.37 25.5688C102.513 25.6307 102.666 25.6617 102.828 25.6617C102.975 25.6617 103.116 25.6364 103.25 25.5859C103.385 25.5354 103.506 25.4621 103.615 25.3661V24.6536H102.847C102.799 24.6536 102.759 24.6372 102.726 24.6043C102.693 24.5715 102.676 24.5323 102.676 24.4869C102.676 24.4389 102.693 24.3984 102.726 24.3656C102.759 24.3327 102.799 24.3163 102.847 24.3163H103.782C103.831 24.3163 103.871 24.3327 103.904 24.3656C103.937 24.3984 103.953 24.4389 103.953 24.4869V25.4381C103.953 25.4836 103.937 25.5227 103.904 25.5556ZM108.34 25.999C108.132 25.999 107.937 25.9598 107.754 25.8815C107.572 25.8032 107.413 25.6964 107.277 25.5613C107.142 25.4261 107.035 25.2676 106.956 25.0856C106.877 24.9037 106.838 24.7092 106.838 24.502C106.838 24.2974 106.877 24.1041 106.956 23.9222C107.035 23.7403 107.142 23.5817 107.277 23.4465C107.413 23.3114 107.572 23.2046 107.754 23.1263C107.937 23.048 108.132 23.0088 108.34 23.0088C108.545 23.0088 108.739 23.048 108.921 23.1263C109.104 23.2046 109.263 23.3114 109.398 23.4465C109.534 23.5817 109.641 23.7403 109.719 23.9222C109.798 24.1041 109.837 24.2974 109.837 24.502C109.837 24.7092 109.798 24.9037 109.719 25.0856C109.641 25.2676 109.534 25.4261 109.398 25.5613C109.263 25.6964 109.104 25.8032 108.921 25.8815C108.739 25.9598 108.545 25.999 108.34 25.999ZM108.34 23.3423C108.18 23.3423 108.029 23.3727 107.887 23.4333C107.745 23.4939 107.621 23.5767 107.515 23.6815C107.408 23.7864 107.325 23.9095 107.264 24.051C107.203 24.1925 107.173 24.3428 107.173 24.502C107.173 24.6612 107.203 24.8115 107.264 24.953C107.325 25.0945 107.408 25.2183 107.515 25.3244C107.621 25.4305 107.745 25.5139 107.887 25.5745C108.029 25.6352 108.18 25.6655 108.34 25.6655C108.499 25.6655 108.65 25.6352 108.792 25.5745C108.934 25.5139 109.057 25.4305 109.163 25.3244C109.268 25.2183 109.351 25.0945 109.411 24.953C109.472 24.8115 109.503 24.6612 109.503 24.502C109.503 24.3428 109.472 24.1925 109.411 24.051C109.351 23.9095 109.268 23.7864 109.163 23.6815C109.057 23.5767 108.934 23.4939 108.792 23.4333C108.65 23.3727 108.499 23.3423 108.34 23.3423ZM113.908 25.999H112.893C112.847 25.999 112.808 25.9826 112.775 25.9497C112.742 25.9169 112.726 25.8777 112.726 25.8322V23.1756C112.726 23.1276 112.742 23.0878 112.775 23.0562C112.808 23.0246 112.847 23.0088 112.893 23.0088C112.941 23.0088 112.981 23.0246 113.013 23.0562C113.044 23.0878 113.06 23.1276 113.06 23.1756V25.6655H113.908C113.956 25.6655 113.997 25.6819 114.029 25.7148C114.062 25.7476 114.079 25.7868 114.079 25.8322C114.079 25.8777 114.062 25.9169 114.029 25.9497C113.997 25.9826 113.956 25.999 113.908 25.999ZM117.815 25.999L116.88 25.999C116.849 25.999 116.82 25.9901 116.792 25.9725C116.765 25.9548 116.744 25.932 116.732 25.9042C116.709 25.8638 116.706 25.8183 116.724 25.7678V23.1756C116.724 23.1301 116.741 23.0909 116.773 23.0581C116.806 23.0252 116.847 23.0088 116.895 23.0088H117.811C118.011 23.0088 118.194 23.0518 118.359 23.1377C118.523 23.2236 118.664 23.336 118.78 23.475C118.897 23.6139 118.987 23.7718 119.05 23.9487C119.114 24.1256 119.145 24.3049 119.145 24.4869C119.145 24.7117 119.107 24.917 119.029 25.1027C118.952 25.2884 118.851 25.4476 118.725 25.5802C118.6 25.7129 118.457 25.8158 118.298 25.8891C118.138 25.9624 117.977 25.999 117.815 25.999ZM117.811 23.3423L117.062 23.3423V25.6655H117.815C117.959 25.6655 118.092 25.6307 118.212 25.5612C118.333 25.4918 118.437 25.4014 118.526 25.2903C118.614 25.1791 118.684 25.0528 118.733 24.9113C118.782 24.7698 118.807 24.6283 118.807 24.4868C118.807 24.3428 118.783 24.202 118.735 24.0643C118.687 23.9266 118.619 23.8041 118.531 23.6967C118.444 23.5893 118.339 23.5034 118.216 23.439C118.093 23.3745 117.958 23.3423 117.811 23.3423ZM123.509 25.999L122.201 25.999C122.153 25.999 122.112 25.9826 122.079 25.9497C122.046 25.9169 122.03 25.8777 122.03 25.8322V23.1756C122.03 23.1301 122.046 23.0909 122.079 23.0581C122.112 23.0252 122.153 23.0088 122.201 23.0088H123.509C123.557 23.0088 123.597 23.0252 123.63 23.0581C123.663 23.0909 123.68 23.1301 123.68 23.1756C123.68 23.2236 123.663 23.2634 123.63 23.295C123.597 23.3265 123.557 23.3423 123.509 23.3423H122.368V24.3087H123.33C123.376 24.3087 123.415 24.3245 123.448 24.3561C123.481 24.3877 123.497 24.4275 123.497 24.4755C123.497 24.521 123.481 24.5601 123.448 24.593C123.415 24.6258 123.376 24.6422 123.33 24.6422H122.368V25.6617H123.509C123.557 25.6617 123.597 25.6781 123.63 25.711C123.663 25.7438 123.68 25.7842 123.68 25.8322C123.68 25.8777 123.663 25.9169 123.63 25.9497C123.597 25.9826 123.557 25.999 123.509 25.999ZM128.279 25.999C128.215 25.999 128.167 25.9725 128.134 25.9194L126.762 23.7516V25.8322C126.762 25.8777 126.746 25.9169 126.715 25.9497C126.683 25.9826 126.643 25.999 126.595 25.999C126.549 25.999 126.51 25.9826 126.477 25.9497C126.444 25.9169 126.428 25.8777 126.428 25.8322V23.1756C126.428 23.1301 126.444 23.0909 126.477 23.0581C126.51 23.0253 126.549 23.0088 126.595 23.0088C126.658 23.0088 126.706 23.0341 126.739 23.0846L128.111 25.2524V23.1756C128.111 23.1301 128.127 23.0909 128.159 23.0581C128.191 23.0253 128.231 23.0088 128.279 23.0088C128.324 23.0088 128.364 23.0253 128.397 23.0581C128.429 23.0909 128.446 23.1301 128.446 23.1756V25.8322C128.446 25.8777 128.429 25.9169 128.397 25.9497C128.364 25.9826 128.324 25.999 128.279 25.999ZM137.883 25.999C137.838 25.999 137.798 25.9826 137.766 25.9497C137.733 25.9169 137.716 25.8777 137.716 25.8322V23.8577L136.72 25.9042C136.705 25.932 136.683 25.9548 136.656 25.9725C136.628 25.9902 136.599 25.999 136.568 25.999C136.538 25.999 136.509 25.9902 136.481 25.9725C136.453 25.9548 136.431 25.932 136.416 25.9042L135.42 23.8577V25.8322C135.42 25.8777 135.404 25.9169 135.373 25.9497C135.341 25.9826 135.301 25.999 135.253 25.999C135.207 25.999 135.168 25.9826 135.135 25.9497C135.102 25.9169 135.086 25.8777 135.086 25.8322V23.1756C135.086 23.1301 135.102 23.0909 135.135 23.0581C135.168 23.0253 135.207 23.0088 135.253 23.0088C135.321 23.0088 135.372 23.0391 135.405 23.0998L136.568 25.4533L137.731 23.0998C137.764 23.0391 137.815 23.0088 137.883 23.0088C137.929 23.0088 137.968 23.0253 138.001 23.0581C138.034 23.0909 138.051 23.1301 138.051 23.1756V25.8322C138.051 25.8777 138.034 25.9169 138.001 25.9497C137.968 25.9826 137.929 25.999 137.883 25.999ZM142.437 25.999C142.229 25.999 142.034 25.9598 141.851 25.8815C141.669 25.8032 141.51 25.6964 141.374 25.5613C141.239 25.4261 141.132 25.2676 141.053 25.0856C140.975 24.9037 140.935 24.7092 140.935 24.502C140.935 24.2974 140.975 24.1041 141.053 23.9222C141.132 23.7403 141.239 23.5817 141.374 23.4465C141.51 23.3114 141.669 23.2046 141.851 23.1263C142.034 23.048 142.229 23.0088 142.437 23.0088C142.642 23.0088 142.836 23.048 143.018 23.1263C143.201 23.2046 143.36 23.3114 143.495 23.4465C143.631 23.5817 143.738 23.7403 143.817 23.9222C143.895 24.1041 143.934 24.2974 143.934 24.502C143.934 24.7092 143.895 24.9037 143.817 25.0856C143.738 25.2676 143.631 25.4261 143.495 25.5613C143.36 25.6964 143.201 25.8032 143.018 25.8815C142.836 25.9598 142.642 25.999 142.437 25.999ZM142.437 23.3423C142.277 23.3423 142.126 23.3727 141.984 23.4333C141.842 23.4939 141.718 23.5767 141.612 23.6815C141.505 23.7864 141.422 23.9095 141.361 24.051C141.3 24.1925 141.27 24.3428 141.27 24.502C141.27 24.6612 141.3 24.8115 141.361 24.953C141.422 25.0945 141.505 25.2183 141.612 25.3244C141.718 25.4305 141.842 25.5139 141.984 25.5745C142.126 25.6352 142.277 25.6655 142.437 25.6655C142.596 25.6655 142.747 25.6352 142.889 25.5745C143.031 25.5139 143.154 25.4305 143.26 25.3244C143.365 25.2183 143.448 25.0945 143.509 24.953C143.569 24.8115 143.6 24.6612 143.6 24.502C143.6 24.3428 143.569 24.1925 143.509 24.051C143.448 23.9095 143.365 23.7864 143.26 23.6815C143.154 23.5767 143.031 23.4939 142.889 23.4333C142.747 23.3727 142.596 23.3423 142.437 23.3423ZM149.62 25.999C149.575 25.999 149.536 25.9826 149.503 25.9497C149.47 25.9169 149.453 25.8777 149.453 25.8322V23.8577L148.457 25.9042C148.442 25.932 148.421 25.9548 148.393 25.9725C148.365 25.9902 148.336 25.999 148.305 25.999C148.275 25.999 148.246 25.9902 148.218 25.9725C148.19 25.9548 148.168 25.932 148.153 25.9042L147.157 23.8577V25.8322C147.157 25.8777 147.141 25.9169 147.11 25.9497C147.078 25.9826 147.038 25.999 146.99 25.999C146.944 25.999 146.905 25.9826 146.872 25.9497C146.839 25.9169 146.823 25.8777 146.823 25.8322V23.1756C146.823 23.1301 146.839 23.0909 146.872 23.0581C146.905 23.0253 146.944 23.0088 146.99 23.0088C147.058 23.0088 147.109 23.0391 147.142 23.0998L148.305 25.4533L149.468 23.0998C149.501 23.0391 149.552 23.0088 149.62 23.0088C149.666 23.0088 149.705 23.0253 149.738 23.0581C149.771 23.0909 149.788 23.1301 149.788 23.1756V25.8322C149.788 25.8777 149.771 25.9169 149.738 25.9497C149.705 25.9826 149.666 25.999 149.62 25.999ZM154.235 25.999L152.927 25.999C152.879 25.999 152.838 25.9826 152.805 25.9497C152.772 25.9169 152.756 25.8777 152.756 25.8322V23.1756C152.756 23.1301 152.772 23.0909 152.805 23.0581C152.838 23.0252 152.879 23.0088 152.927 23.0088H154.235C154.283 23.0088 154.323 23.0252 154.356 23.0581C154.389 23.0909 154.406 23.1301 154.406 23.1756C154.406 23.2236 154.389 23.2634 154.356 23.295C154.323 23.3265 154.283 23.3423 154.235 23.3423H153.094V24.3087H154.056C154.102 24.3087 154.141 24.3245 154.174 24.3561C154.207 24.3877 154.223 24.4275 154.223 24.4755C154.223 24.521 154.207 24.5601 154.174 24.593C154.141 24.6258 154.102 24.6422 154.056 24.6422H153.094V25.6617H154.235C154.283 25.6617 154.323 25.6781 154.356 25.711C154.389 25.7438 154.406 25.7842 154.406 25.8322C154.406 25.8777 154.389 25.9169 154.356 25.9497C154.323 25.9826 154.283 25.999 154.235 25.999ZM159.005 25.999C158.941 25.999 158.893 25.9725 158.86 25.9194L157.488 23.7516V25.8322C157.488 25.8777 157.472 25.9169 157.44 25.9497C157.409 25.9826 157.369 25.999 157.321 25.999C157.275 25.999 157.236 25.9826 157.203 25.9497C157.17 25.9169 157.153 25.8777 157.153 25.8322V23.1756C157.153 23.1301 157.17 23.0909 157.203 23.0581C157.236 23.0253 157.275 23.0088 157.321 23.0088C157.384 23.0088 157.432 23.0341 157.465 23.0846L158.837 25.2524V23.1756C158.837 23.1301 158.853 23.0909 158.885 23.0581C158.917 23.0253 158.956 23.0088 159.005 23.0088C159.05 23.0088 159.09 23.0253 159.122 23.0581C159.155 23.0909 159.172 23.1301 159.172 23.1756V25.8322C159.172 25.8777 159.155 25.9169 159.122 25.9497C159.09 25.9826 159.05 25.999 159.005 25.999ZM163.585 23.3423H162.969V25.8322C162.969 25.8777 162.952 25.9169 162.919 25.9497C162.886 25.9826 162.847 25.999 162.802 25.999C162.753 25.999 162.713 25.9826 162.68 25.9497C162.647 25.9169 162.631 25.8777 162.631 25.8322V23.3423H162.015C161.969 23.3423 161.93 23.3265 161.897 23.295C161.864 23.2634 161.847 23.2236 161.847 23.1756C161.847 23.1301 161.864 23.0909 161.897 23.0581C161.93 23.0253 161.969 23.0088 162.015 23.0088H163.585C163.63 23.0088 163.669 23.0253 163.702 23.0581C163.735 23.0909 163.752 23.1301 163.752 23.1756C163.752 23.2236 163.735 23.2634 163.702 23.295C163.669 23.3265 163.63 23.3423 163.585 23.3423ZM167.184 25.999C167.067 25.999 166.958 25.9769 166.857 25.9327C166.756 25.8884 166.667 25.8284 166.591 25.7527C166.515 25.6769 166.455 25.5884 166.41 25.4874C166.366 25.3863 166.344 25.2777 166.344 25.1614C166.344 25.1134 166.36 25.073 166.393 25.0402C166.426 25.0073 166.467 24.9909 166.515 24.9909C166.56 24.9909 166.6 25.0073 166.633 25.0402C166.666 25.073 166.682 25.1134 166.682 25.1614C166.682 25.2297 166.695 25.2941 166.722 25.3547C166.749 25.4154 166.785 25.4684 166.83 25.5139C166.876 25.5594 166.929 25.5954 166.99 25.6219C167.051 25.6484 167.115 25.6617 167.184 25.6617C167.252 25.6617 167.318 25.6484 167.38 25.6219C167.442 25.5954 167.496 25.5594 167.541 25.5139C167.587 25.4684 167.623 25.4154 167.649 25.3547C167.676 25.2941 167.689 25.2297 167.689 25.1614C167.689 25.0781 167.673 25.0092 167.64 24.9549C167.607 24.9006 167.561 24.8532 167.503 24.8128C167.475 24.7926 167.444 24.7742 167.408 24.7578C167.373 24.7414 167.336 24.7243 167.298 24.7067C167.26 24.6915 167.221 24.6763 167.18 24.6612C167.14 24.646 167.098 24.6309 167.055 24.6157C166.971 24.5854 166.887 24.5513 166.802 24.5134C166.717 24.4755 166.641 24.4281 166.574 24.3713C166.507 24.3144 166.452 24.2437 166.408 24.159C166.365 24.0744 166.344 23.9702 166.344 23.8464C166.344 23.7302 166.366 23.6215 166.41 23.5204C166.455 23.4194 166.515 23.331 166.591 23.2552C166.667 23.1794 166.756 23.1194 166.857 23.0751C166.958 23.0309 167.067 23.0088 167.184 23.0088C167.3 23.0088 167.41 23.0309 167.513 23.0751C167.615 23.1194 167.705 23.1794 167.781 23.2552C167.857 23.331 167.917 23.4194 167.961 23.5204C168.006 23.6215 168.028 23.7302 168.028 23.8464C168.028 23.8919 168.011 23.931 167.978 23.9639C167.945 23.9967 167.905 24.0131 167.857 24.0131C167.811 24.0131 167.772 23.9967 167.739 23.9639C167.706 23.931 167.689 23.8919 167.689 23.8464C167.689 23.7782 167.676 23.7131 167.65 23.6512C167.623 23.5893 167.587 23.5356 167.541 23.4901C167.496 23.4447 167.442 23.4087 167.38 23.3821C167.318 23.3556 167.252 23.3423 167.184 23.3423C167.115 23.3423 167.051 23.3556 166.99 23.3821C166.929 23.4087 166.876 23.4447 166.83 23.4901C166.785 23.5356 166.749 23.5893 166.722 23.6512C166.695 23.7131 166.682 23.7782 166.682 23.8464C166.682 23.9222 166.698 23.9853 166.73 24.0359C166.761 24.0864 166.806 24.1306 166.865 24.1685C166.925 24.2064 166.994 24.2405 167.07 24.2708L167.191 24.3163L167.317 24.3618C167.401 24.3921 167.485 24.4268 167.57 24.466C167.655 24.5052 167.731 24.5544 167.798 24.6138C167.865 24.6732 167.92 24.7471 167.963 24.8355C168.006 24.9239 168.028 25.0326 168.028 25.1614C168.028 25.2777 168.006 25.3863 167.961 25.4874C167.917 25.5884 167.857 25.6769 167.781 25.7527C167.705 25.8284 167.615 25.8885 167.513 25.9327C167.41 25.9769 167.3 25.999 167.184 25.999ZM174.755 25.999C174.707 25.999 174.666 25.9826 174.633 25.9497C174.6 25.9169 174.584 25.8777 174.584 25.8322V23.1756C174.584 23.1301 174.6 23.0909 174.633 23.0581C174.666 23.0253 174.707 23.0088 174.755 23.0088C174.801 23.0088 174.84 23.0253 174.873 23.0581C174.906 23.0909 174.922 23.1301 174.922 23.1756V25.8322C174.922 25.8777 174.906 25.9169 174.873 25.9497C174.84 25.9826 174.801 25.999 174.755 25.999ZM179.742 25.999C179.678 25.999 179.63 25.9725 179.597 25.9194L178.225 23.7516V25.8322C178.225 25.8777 178.209 25.9169 178.177 25.9497C178.146 25.9826 178.106 25.999 178.058 25.999C178.012 25.999 177.973 25.9826 177.94 25.9497C177.907 25.9169 177.89 25.8777 177.89 25.8322V23.1756C177.89 23.1301 177.907 23.0909 177.94 23.0581C177.973 23.0253 178.012 23.0088 178.058 23.0088C178.121 23.0088 178.169 23.0341 178.202 23.0846L179.574 25.2524V23.1756C179.574 23.1301 179.59 23.0909 179.622 23.0581C179.654 23.0253 179.693 23.0088 179.742 23.0088C179.787 23.0088 179.827 23.0253 179.859 23.0581C179.892 23.0909 179.909 23.1301 179.909 23.1756V25.8322C179.909 25.8777 179.892 25.9169 179.859 25.9497C179.827 25.9826 179.787 25.999 179.742 25.999ZM188.027 25.999L186.72 25.999C186.672 25.999 186.631 25.9826 186.598 25.9497C186.565 25.9169 186.549 25.8777 186.549 25.8322V23.1756C186.549 23.1301 186.565 23.0909 186.598 23.0581C186.631 23.0252 186.672 23.0088 186.72 23.0088H188.027C188.075 23.0088 188.116 23.0252 188.149 23.0581C188.182 23.0909 188.198 23.1301 188.198 23.1756C188.198 23.2236 188.182 23.2634 188.149 23.295C188.116 23.3265 188.075 23.3423 188.027 23.3423H186.887V24.3087H187.849C187.894 24.3087 187.934 24.3245 187.966 24.3561C187.999 24.3877 188.016 24.4275 188.016 24.4755C188.016 24.521 187.999 24.5601 187.966 24.593C187.934 24.6258 187.894 24.6422 187.849 24.6422H186.887V25.6617H188.027C188.075 25.6617 188.116 25.6781 188.149 25.711C188.182 25.7438 188.198 25.7842 188.198 25.8322C188.198 25.8777 188.182 25.9169 188.149 25.9497C188.116 25.9826 188.075 25.999 188.027 25.999ZM193.147 23.2135L192.064 25.8929C192.051 25.9257 192.031 25.9516 192.003 25.9706C191.975 25.9895 191.943 25.999 191.908 25.999C191.872 25.999 191.841 25.9895 191.813 25.9706C191.785 25.9516 191.765 25.9257 191.752 25.8929L190.665 23.2135C190.657 23.1958 190.653 23.1743 190.653 23.1491C190.653 23.1036 190.67 23.0644 190.703 23.0316C190.736 22.9987 190.775 22.9823 190.821 22.9823C190.856 22.9823 190.889 22.9918 190.918 23.0107C190.947 23.0297 190.968 23.0556 190.98 23.0884L191.908 25.3812L192.835 23.0884C192.848 23.0556 192.868 23.0297 192.896 23.0107C192.924 22.9918 192.956 22.9823 192.991 22.9823C193.039 22.9823 193.08 22.9987 193.113 23.0316C193.146 23.0644 193.162 23.1036 193.162 23.1491C193.162 23.1743 193.157 23.1958 193.147 23.2135ZM197.316 25.999L196.009 25.999C195.961 25.999 195.92 25.9826 195.887 25.9497C195.854 25.9169 195.838 25.8777 195.838 25.8322V23.1756C195.838 23.1301 195.854 23.0909 195.887 23.0581C195.92 23.0252 195.961 23.0088 196.009 23.0088H197.316C197.365 23.0088 197.405 23.0252 197.438 23.0581C197.471 23.0909 197.488 23.1301 197.488 23.1756C197.488 23.2236 197.471 23.2634 197.438 23.295C197.405 23.3265 197.365 23.3423 197.316 23.3423H196.176V24.3087H197.138C197.183 24.3087 197.223 24.3245 197.256 24.3561C197.289 24.3877 197.305 24.4275 197.305 24.4755C197.305 24.521 197.289 24.5601 197.256 24.593C197.223 24.6258 197.183 24.6422 197.138 24.6422H196.176V25.6617H197.316C197.365 25.6617 197.405 25.6781 197.438 25.711C197.471 25.7438 197.488 25.7842 197.488 25.8322C197.488 25.8777 197.471 25.9169 197.438 25.9497C197.405 25.9826 197.365 25.999 197.316 25.999ZM201.075 24.6839L201.03 24.6839L201.079 24.5968L201.767 25.7451C201.782 25.7729 201.79 25.8019 201.79 25.8322C201.79 25.8777 201.774 25.9169 201.741 25.9497C201.708 25.9826 201.668 25.999 201.623 25.999C201.592 25.999 201.564 25.9914 201.537 25.9762C201.511 25.9611 201.49 25.9409 201.474 25.9156L200.737 24.6839H200.574V25.8322C200.574 25.8777 200.557 25.9169 200.524 25.9497C200.491 25.9826 200.452 25.999 200.406 25.999C200.358 25.999 200.318 25.9826 200.285 25.9497C200.252 25.9169 200.235 25.8777 200.235 25.8322V23.1756C200.235 23.1301 200.252 23.0909 200.285 23.0581C200.318 23.0252 200.358 23.0088 200.406 23.0088H201.075C201.192 23.0088 201.302 23.0309 201.404 23.0751C201.507 23.1194 201.596 23.1794 201.672 23.2552C201.748 23.331 201.808 23.4194 201.853 23.5204C201.897 23.6215 201.919 23.7302 201.919 23.8464C201.919 23.9626 201.897 24.0712 201.853 24.1723C201.808 24.2734 201.748 24.3618 201.672 24.4376C201.596 24.5134 201.507 24.5734 201.404 24.6176C201.302 24.6618 201.192 24.6839 201.075 24.6839ZM201.075 23.3423H200.574V24.3466H201.075C201.144 24.3466 201.209 24.3334 201.271 24.3068C201.333 24.2803 201.387 24.2443 201.433 24.1988C201.478 24.1533 201.514 24.1003 201.541 24.0397C201.568 23.979 201.581 23.9146 201.581 23.8464C201.581 23.7782 201.568 23.7131 201.541 23.6512C201.514 23.5893 201.478 23.5356 201.433 23.4901C201.387 23.4447 201.333 23.4086 201.271 23.3821C201.209 23.3556 201.144 23.3423 201.075 23.3423ZM206.427 23.259L205.564 24.7976V25.8322C205.564 25.8777 205.548 25.9169 205.515 25.9497C205.482 25.9826 205.442 25.999 205.397 25.999C205.351 25.999 205.312 25.9826 205.279 25.9497C205.246 25.9169 205.23 25.8777 205.23 25.8322V24.7976L204.367 23.259C204.352 23.2337 204.344 23.2059 204.344 23.1756C204.344 23.1301 204.36 23.0909 204.393 23.0581C204.426 23.0253 204.466 23.0088 204.511 23.0088C204.542 23.0088 204.57 23.0164 204.597 23.0316C204.623 23.0467 204.644 23.0669 204.659 23.0922L205.397 24.4073L206.134 23.0922C206.149 23.0669 206.17 23.0467 206.197 23.0316C206.224 23.0164 206.252 23.0088 206.283 23.0088C206.328 23.0088 206.367 23.0253 206.4 23.0581C206.433 23.0909 206.45 23.1301 206.45 23.1756C206.45 23.2059 206.442 23.2337 206.427 23.259ZM214.276 23.3423H213.135V24.3239H214.097C214.142 24.3239 214.182 24.3403 214.215 24.3732C214.248 24.406 214.264 24.4452 214.264 24.4906C214.264 24.5387 214.248 24.5784 214.215 24.61C214.182 24.6416 214.142 24.6574 214.097 24.6574H213.135V25.8322C213.135 25.8777 213.119 25.9169 213.086 25.9497C213.053 25.9826 213.014 25.999 212.968 25.999C212.92 25.999 212.879 25.9826 212.846 25.9497C212.813 25.9169 212.797 25.8777 212.797 25.8322V23.1756C212.797 23.1301 212.813 23.0909 212.846 23.0581C212.879 23.0253 212.92 23.0088 212.968 23.0088H214.276C214.324 23.0088 214.364 23.0253 214.397 23.0581C214.43 23.0909 214.447 23.1301 214.447 23.1756C214.447 23.2236 214.43 23.2634 214.397 23.295C214.364 23.3265 214.324 23.3423 214.276 23.3423ZM217.92 24.6839L217.875 24.6839L217.924 24.5968L218.612 25.7451C218.627 25.7729 218.635 25.8019 218.635 25.8322C218.635 25.8777 218.619 25.9169 218.586 25.9497C218.553 25.9826 218.513 25.999 218.468 25.999C218.437 25.999 218.409 25.9914 218.382 25.9762C218.356 25.9611 218.335 25.9409 218.32 25.9156L217.582 24.6839H217.419V25.8322C217.419 25.8777 217.402 25.9169 217.369 25.9497C217.336 25.9826 217.297 25.999 217.251 25.999C217.203 25.999 217.163 25.9826 217.13 25.9497C217.097 25.9169 217.08 25.8777 217.08 25.8322V23.1756C217.08 23.1301 217.097 23.0909 217.13 23.0581C217.163 23.0252 217.203 23.0088 217.251 23.0088H217.92C218.037 23.0088 218.147 23.0309 218.249 23.0751C218.352 23.1194 218.441 23.1794 218.517 23.2552C218.593 23.331 218.653 23.4194 218.698 23.5204C218.742 23.6215 218.764 23.7302 218.764 23.8464C218.764 23.9626 218.742 24.0712 218.698 24.1723C218.653 24.2734 218.593 24.3618 218.517 24.4376C218.441 24.5134 218.352 24.5734 218.249 24.6176C218.147 24.6618 218.037 24.6839 217.92 24.6839ZM217.92 23.3423H217.419V24.3466H217.92C217.989 24.3466 218.054 24.3334 218.116 24.3068C218.178 24.2803 218.232 24.2443 218.278 24.1988C218.323 24.1533 218.359 24.1003 218.386 24.0397C218.413 23.979 218.426 23.9146 218.426 23.8464C218.426 23.7782 218.413 23.7131 218.386 23.6512C218.359 23.5893 218.323 23.5356 218.278 23.4901C218.232 23.4447 218.178 23.4086 218.116 23.3821C218.054 23.3556 217.989 23.3423 217.92 23.3423ZM223.755 25.9838C223.734 25.9939 223.713 25.999 223.69 25.999C223.657 25.999 223.626 25.9902 223.597 25.9725C223.568 25.9548 223.547 25.9295 223.534 25.8967L223.234 25.1918H221.854L221.554 25.8967C221.536 25.9396 221.506 25.9699 221.463 25.9876C221.42 26.0053 221.377 26.004 221.333 25.9838C221.29 25.9661 221.26 25.9358 221.242 25.8929C221.224 25.8499 221.226 25.807 221.246 25.764L221.588 24.9568L222.39 23.0846C222.403 23.0518 222.423 23.0265 222.451 23.0088C222.479 22.9911 222.511 22.9823 222.546 22.9823C222.579 22.9823 222.609 22.9911 222.637 23.0088C222.665 23.0265 222.685 23.0518 222.698 23.0846C222.891 23.5344 223.082 23.9809 223.272 24.4243C223.462 24.8677 223.653 25.3143 223.846 25.764C223.864 25.807 223.864 25.8499 223.846 25.8929C223.828 25.9358 223.798 25.9661 223.755 25.9838ZM222.546 23.5811L221.999 24.8545H223.09L222.546 23.5811ZM229.372 25.999C229.327 25.999 229.288 25.9826 229.255 25.9497C229.222 25.9169 229.205 25.8777 229.205 25.8322V23.8577L228.209 25.9042C228.194 25.932 228.173 25.9548 228.145 25.9725C228.117 25.9902 228.088 25.999 228.057 25.999C228.027 25.999 227.998 25.9902 227.97 25.9725C227.942 25.9548 227.92 25.932 227.905 25.9042L226.909 23.8577V25.8322C226.909 25.8777 226.893 25.9169 226.862 25.9497C226.83 25.9826 226.79 25.999 226.742 25.999C226.696 25.999 226.657 25.9826 226.624 25.9497C226.591 25.9169 226.575 25.8777 226.575 25.8322V23.1756C226.575 23.1301 226.591 23.0909 226.624 23.0581C226.657 23.0253 226.696 23.0088 226.742 23.0088C226.81 23.0088 226.861 23.0391 226.894 23.0998L228.057 25.4533L229.22 23.0998C229.253 23.0391 229.304 23.0088 229.372 23.0088C229.418 23.0088 229.457 23.0253 229.49 23.0581C229.523 23.0909 229.54 23.1301 229.54 23.1756V25.8322C229.54 25.8777 229.523 25.9169 229.49 25.9497C229.457 25.9826 229.418 25.999 229.372 25.999ZM233.987 25.999L232.679 25.999C232.631 25.999 232.59 25.9826 232.557 25.9497C232.524 25.9169 232.508 25.8777 232.508 25.8322V23.1756C232.508 23.1301 232.524 23.0909 232.557 23.0581C232.59 23.0252 232.631 23.0088 232.679 23.0088H233.987C234.035 23.0088 234.075 23.0252 234.108 23.0581C234.141 23.0909 234.158 23.1301 234.158 23.1756C234.158 23.2236 234.141 23.2634 234.108 23.295C234.075 23.3265 234.035 23.3423 233.987 23.3423H232.846V24.3087H233.808C233.854 24.3087 233.893 24.3245 233.926 24.3561C233.959 24.3877 233.975 24.4275 233.975 24.4755C233.975 24.521 233.959 24.5601 233.926 24.593C233.893 24.6258 233.854 24.6422 233.808 24.6422H232.846V25.6617H233.987C234.035 25.6617 234.075 25.6781 234.108 25.711C234.141 25.7438 234.158 25.7842 234.158 25.8322C234.158 25.8777 234.141 25.9169 234.108 25.9497C234.075 25.9826 234.035 25.999 233.987 25.999ZM236.928 25.999C236.867 25.999 236.815 25.9769 236.771 25.9327C236.726 25.8885 236.704 25.836 236.704 25.7754C236.704 25.7122 236.726 25.6598 236.769 25.6181C236.812 25.5764 236.865 25.5556 236.928 25.5556C236.992 25.5556 237.045 25.5764 237.088 25.6181C237.131 25.6598 237.153 25.7122 237.153 25.7754C237.153 25.836 237.13 25.8885 237.086 25.9327C237.042 25.9769 236.989 25.999 236.928 25.999Z" fill="#B89559"/>
</svg>
