<svg width="24" height="24" viewBox="0 0 24 24" fill="none" xmlns="http://www.w3.org/2000/svg">
  <path d="M10.2473 2.10703C10.0444 1.01122 10.8856 0 12 0C13.1144 0 13.9556 1.01122 13.7527 2.10703L12 11.5714L10.2473 2.10703Z" fill="#1A1614"/>
  <path d="M10.2473 21.893C10.0444 22.9888 10.8856 24 12 24C13.1144 24 13.9556 22.9888 13.7527 21.893L12 12.4286L10.2473 21.893Z" fill="#1A1614"/>
  <path d="M21.893 13.7527C22.9888 13.9556 24 13.1144 24 12C24 10.8856 22.9888 10.0444 21.893 10.2473L12.4286 12L21.893 13.7527Z" fill="#1A1614"/>
  <path d="M2.10703 13.7527C1.01122 13.9556 0 13.1144 0 12C0 10.8856 1.01122 10.0444 2.10703 10.2473L11.5714 12L2.10703 13.7527Z" fill="#1A1614"/>
  <path d="M3.69438 6.17301C2.77603 5.54164 2.65577 4.23182 3.4438 3.44379C4.23183 2.65576 5.54165 2.77601 6.17302 3.69437L11.626 11.626L3.69438 6.17301Z" fill="#1A1614"/>
  <path d="M3.69438 17.8137C2.77603 18.445 2.65577 19.7548 3.4438 20.5429C4.23183 21.3309 5.54165 21.2106 6.17302 20.2923L11.626 12.3606L3.69438 17.8137Z" fill="#1A1614"/>
  <path d="M20.2757 17.8137C21.194 18.445 21.3143 19.7548 20.5262 20.5429C19.7382 21.3309 18.4284 21.2106 17.797 20.2923L12.344 12.3606L20.2757 17.8137Z" fill="#1A1614"/>
  <path d="M20.2757 6.17301C21.194 5.54164 21.3143 4.23182 20.5262 3.44379C19.7382 2.65576 18.4284 2.77601 17.797 3.69437L12.344 11.626L20.2757 6.17301Z" fill="#1A1614"/>
</svg>
