<svg width="180" height="180" viewBox="0 0 180 180" fill="none" xmlns="http://www.w3.org/2000/svg">
<rect width="180" height="180" rx="45" fill="#191512"/>
<path d="M47.8973 96.039C49.5993 101.58 51.3013 107.121 53.8543 112.661C54.7487 114.752 55.2253 116.633 55.7232 118.598C55.9359 119.437 56.1526 120.292 56.4074 121.186C56.7602 122.423 57.2595 123.587 57.7533 124.738C58.4504 126.363 59.1368 127.964 59.3859 129.71C59.3859 130.334 59.6139 130.73 59.903 131.231C60.0089 131.415 60.1229 131.613 60.2369 131.841C60.6624 132.694 61.5134 133.12 62.3644 133.12C62.7899 133.12 63.2154 133.12 64.0664 132.694C64.4919 132.551 64.9174 132.362 65.343 132.173C66.194 131.794 67.045 131.415 67.896 131.415C73.853 129.71 79.3846 128.005 84.9161 125.874C89.1712 124.595 93.4262 123.317 97.2558 121.612C100.234 120.333 103.213 119.374 106.191 118.415C109.17 117.456 112.148 116.497 115.127 115.219C119.54 114.114 123.952 112.471 128.249 110.872C130.582 110.004 132.88 109.149 135.126 108.399C135.551 108.186 136.083 107.973 136.615 107.76C137.147 107.547 137.679 107.334 138.104 107.121C138.955 106.694 139.381 105.842 139.381 104.563C139.381 103.711 139.381 102.432 138.955 101.154C137.679 96.8914 136.402 92.6293 134.7 88.3671C134.275 87.3016 133.956 86.3426 133.636 85.3836C133.317 84.4246 132.998 83.4656 132.573 82.4001C132.406 81.8985 132.239 81.3804 132.069 80.8524C131.371 78.6887 130.62 76.3577 129.594 74.302C128.318 70.4661 126.616 66.6301 124.914 62.7942C124.488 61.7287 124.063 60.5566 123.637 59.3845C123.212 58.2124 122.786 57.0403 122.361 55.9747C119.807 50.4339 117.68 44.4669 115.552 38.4999C114.701 36.795 114.276 34.664 114.276 32.9591C114.276 32.5329 114.276 32.1067 113.85 31.2542C113.85 30.4018 112.574 29.5494 111.723 29.5494C110.872 29.5494 110.446 29.5494 109.595 29.9756C107.893 30.4018 106.617 30.828 104.915 31.6805C103 32.3198 101.192 32.9591 99.3833 33.5984C97.5749 34.2377 95.7665 34.8771 93.8517 35.5164C92.8862 35.8218 91.9146 36.1272 90.9384 36.4341C83.7405 38.6967 76.2915 41.0382 69.1725 44.0407C68.5342 44.2538 68.0024 44.4669 67.4705 44.68C66.9386 44.8931 66.4067 45.1062 65.7684 45.3193C63.8537 45.9587 62.0453 46.598 60.2369 47.2373C58.4285 47.8766 56.6201 48.516 54.7053 49.1553C50.4503 50.4339 46.6208 52.1388 42.3657 54.2699C40.5577 55.1754 38.963 56.2947 37.2795 57.4764C36.5858 57.9633 35.8771 58.4608 35.1321 58.9582C33.4301 60.2369 33.0046 61.9418 33.8556 63.6466C34.2811 64.4991 34.7066 65.3515 35.1321 66.2039C37.2597 70.8923 38.9617 75.1544 40.2382 80.269C41.0892 83.6787 42.3657 86.6623 43.6422 89.6458C46.1953 91.3506 47.0463 93.4817 47.8973 96.039ZM40.2382 64.499C39.8127 64.0728 39.8127 63.6466 39.8127 63.2204C39.3872 62.368 39.8127 61.0893 40.6637 60.2369C41.0892 59.8107 41.5147 59.3845 41.9402 59.3845C42.7912 58.9583 43.5359 58.532 44.2805 58.1058C45.0251 57.6796 45.7697 57.2534 46.6208 56.8272C50.4503 54.6961 54.7053 53.4175 58.9604 52.1388C60.6624 51.4995 62.3644 50.9667 64.0664 50.4339C65.7685 49.9012 67.4705 49.3684 69.1725 48.7291C69.598 48.516 70.0235 48.4094 70.449 48.3029C70.8745 48.1963 71.3 48.0898 71.7255 47.8766C80.2356 44.4669 89.1712 41.4834 98.1068 38.4999C101.511 37.6475 104.489 36.3688 107.468 35.0902C108.319 34.664 109.17 34.664 109.595 34.664C110.872 34.664 111.723 35.0902 112.148 35.9426C112.361 36.1557 112.574 36.4754 112.787 36.795C112.999 37.1147 113.212 37.4344 113.425 37.6475C114.276 39.3523 114.701 41.0572 115.127 42.7621C117.254 49.5815 119.382 56.401 121.935 62.7942C123.212 66.6301 124.914 70.8923 126.616 74.7282C127.892 77.7117 129.169 81.1215 130.02 84.105C130.445 85.3836 130.871 86.7688 131.296 88.1539C131.722 89.5391 132.147 90.9244 132.573 92.2031C132.998 93.4817 133.317 94.6538 133.636 95.8259C133.956 96.998 134.275 98.1701 134.7 99.4487C134.7 99.8749 134.7 100.301 134.7 101.154C134.7 102.432 134.275 103.711 132.998 104.137C132.573 104.563 131.722 104.99 130.871 104.99C125.339 107.121 119.808 108.825 114.276 110.53C107.893 112.235 101.936 114.366 95.5537 116.924C92.5752 118.202 89.1712 119.481 86.1926 120.333C83.4269 121.186 80.7675 122.145 78.1081 123.104C75.4487 124.063 72.7893 125.022 70.0235 125.874C68.747 126.3 67.4705 126.727 66.6195 126.727C65.3429 126.727 64.4919 126.3 63.6409 125.448C62.3644 123.743 61.0879 121.612 60.6624 119.055C59.5506 114.229 57.7933 110.05 55.9527 105.673C55.68 105.024 55.4054 104.371 55.1308 103.711C54.7053 102.645 54.2798 101.473 53.8543 100.301C53.4288 99.1291 53.0033 97.957 52.5778 96.8914C51.3013 93.0555 50.0248 89.6458 48.3228 86.236C47.0463 84.105 46.1953 81.5477 45.7698 79.4166C44.9187 74.302 43.2167 69.1874 40.2382 64.499Z" fill="#B89559"/>
<path d="M66.6195 93.4817C72.151 96.8914 77.6826 99.4487 84.0651 100.727C84.9162 100.94 85.8735 101.154 86.8309 101.367C87.7883 101.58 88.7457 101.793 89.5967 102.006C90.235 102.219 90.7668 102.432 91.2987 102.645C91.8306 102.858 92.3625 103.072 93.0007 103.285C93.8517 103.711 94.7027 103.285 95.5538 102.858C96.4048 102.432 97.2558 101.58 98.1068 100.727C98.5323 100.088 98.8514 99.4487 99.1706 98.8094C99.4897 98.1701 99.8088 97.5308 100.234 96.8915C100.592 96.2951 100.949 95.7321 101.297 95.1838C102.192 93.7728 103.025 92.4591 103.638 90.9244C104.489 89.6458 105.34 88.2606 106.191 86.8754C107.042 85.4902 107.893 84.105 108.744 82.8263C111.723 78.5642 112.148 73.4496 112.148 68.7612C112.148 67.9088 112.148 67.0563 111.723 66.2039C109.595 62.368 106.617 59.8107 101.936 59.8107C100.234 59.8107 98.5323 60.2369 96.8303 60.6631C96.192 60.8762 95.6601 61.1959 95.1283 61.5155C94.5964 61.8352 94.0645 62.1549 93.4262 62.368C90.8732 63.6466 88.7457 65.3515 87.0437 67.9088C86.8309 68.1219 86.6182 68.4416 86.4054 68.7612C86.1927 69.0809 85.9799 69.4005 85.7672 69.6136C84.9162 70.4661 84.0652 70.4661 83.2141 70.4661C80.6611 69.6136 78.5336 69.1874 75.9806 69.6136C74.7041 69.6136 73.4275 69.6136 72.151 69.6136C68.3215 70.0399 64.492 71.7447 61.9389 74.302C60.6624 75.5807 59.8114 77.2855 59.8114 78.9904C59.8114 79.8428 59.8114 81.1215 60.2369 81.9739C60.6624 87.5147 62.7899 90.9244 66.6195 93.4817ZM66.194 76.8593C67.896 75.1544 70.0235 74.302 72.5765 74.302C73.4275 74.302 74.7041 74.302 75.5551 73.8758C79.3846 73.4496 82.7886 74.302 86.1927 76.8593C87.0437 77.2855 87.8947 77.7117 88.3202 78.138C88.7457 78.5642 89.5967 78.138 90.4477 77.7117C90.8732 77.2855 90.8732 76.8593 90.8732 76.4331C90.6605 76.0069 90.5541 75.5807 90.4477 75.1544C90.3413 74.7282 90.235 74.302 90.0222 73.8758C89.5967 72.5971 90.0222 70.8923 90.8732 70.0399C91.1747 69.7379 91.4228 69.4359 91.6553 69.1529C92.0791 68.637 92.4512 68.184 93.0007 67.9088C95.1283 66.6301 97.2558 65.3515 99.3833 64.499C103.638 62.7942 109.17 66.2039 108.744 71.7447C108.744 75.1544 107.893 78.138 106.191 80.6953C105.34 81.9739 104.489 83.3591 103.638 84.7443C102.787 86.1295 101.936 87.5147 101.085 88.7933C99.3833 91.3506 97.6813 93.9079 96.4048 96.4652C96.192 96.6783 95.9793 96.998 95.7665 97.3177C95.5538 97.6373 95.341 97.957 95.1283 98.1701C94.2773 99.4487 93.0007 99.875 91.7242 99.4487C90.8732 99.4487 90.4477 99.4487 89.5967 99.0225C88.3202 98.5963 87.1501 98.2766 85.9799 97.957C84.8098 97.6373 83.6396 97.3177 82.3631 96.8915C77.2571 95.1866 72.5765 93.0555 68.3215 89.6458C64.9175 87.5147 63.6409 84.105 64.0664 80.269C64.4919 78.9904 64.9175 77.7117 66.194 76.8593Z" fill="#B89559"/>
<path fill-rule="evenodd" clip-rule="evenodd" d="M40.6637 112.235C41.9402 117.35 43.6422 122.464 45.7698 127.153C47.0463 130.136 48.3228 133.12 48.7483 136.103C49.1738 137.808 49.5993 139.087 50.0248 140.792C51.3013 146.332 53.0033 152.299 55.1309 157.414L56.4074 159.971C56.8329 160.824 58.1094 161.25 58.9604 161.25C59.8114 161.25 60.6624 160.824 61.5134 160.398C66.6195 157.84 72.151 155.709 77.6826 153.578C80.2356 152.726 82.7886 151.873 85.3417 150.595C89.1712 148.89 93.4262 147.611 97.2558 146.759C100.66 145.906 104.489 144.628 107.893 143.349C111.723 142.07 115.978 140.365 119.807 139.087C124.554 136.946 127.922 136.521 133.849 135.677C134.275 135.251 135.126 134.825 135.551 134.825C139.806 133.546 144.061 131.841 148.316 130.562C149.593 130.136 150.869 130.136 152.146 130.136C153.848 130.136 154.699 129.284 155.55 128.005C155.975 127.579 156.401 126.727 156.826 126.3C157.764 123.023 157.685 120.899 156.826 116.924C156.401 115.645 155.975 114.792 155.124 113.514C154.273 111.809 153.848 110.104 153.422 108.399C152.146 103.285 150.869 98.5963 148.742 93.9079C147.04 90.4982 145.763 87.0885 144.912 83.6787C144.061 80.269 142.785 77.2855 141.083 74.302C138.955 70.8923 137.679 67.0564 136.828 62.7942C136.402 59.3845 135.126 56.401 134.275 52.9912C133.094 48.0521 132.436 45.7679 131.296 43.6145C130.871 43.6145 130.445 43.1883 130.445 42.3359C129.169 40.631 129.169 39.7786 129.169 39.3523C127.366 34.3345 126.43 31.3914 124.063 27.4183C123.637 26.9921 123.212 26.1396 122.786 25.7134C121.935 24.4348 121.51 22.7299 121.084 21.4513C120.233 18.894 118.956 18.4678 116.829 18.894C116.403 18.894 115.978 18.894 115.127 19.3202C111.723 20.1726 108.744 21.4513 105.34 22.3037C95.9793 25.2872 87.0437 28.6969 77.6826 31.2542C76.8316 31.6804 75.5551 32.1067 74.7041 32.1067C68.3215 34.2377 61.5134 36.795 55.1309 38.4999C53.4288 38.9261 51.3013 39.7785 49.5993 40.631C45.3443 42.7621 41.0892 44.8931 36.4087 46.598C34.7067 47.0242 33.0046 47.8767 31.7281 48.7291C29.1751 50.0077 26.6221 51.2864 24.4946 52.9912C22.367 54.6961 21.9415 55.5485 23.218 58.1058C24.069 59.8107 24.9201 61.9418 25.3456 64.0728C26.6221 69.1874 27.8986 73.8758 29.1751 78.9904C29.6006 81.5477 30.4516 84.105 30.8771 86.6623C32.5791 92.6293 34.7067 98.1701 36.8342 103.711C38.9617 106.694 39.8127 109.678 40.6637 112.235ZM28.7496 58.9582C31.3026 65.7777 33.0046 72.5972 34.7067 79.8428C35.1322 81.9739 35.9832 83.6787 36.4087 85.8098C38.1107 90.9244 40.2382 96.4652 42.3657 101.58C43.6422 104.563 44.4933 107.547 45.3443 110.53C46.6208 115.645 48.3228 120.76 50.4503 125.448C51.7268 128.431 52.5778 131.415 53.4288 134.398C54.7054 138.661 55.5564 142.923 56.8329 147.185C57.2584 149.316 58.1094 151.021 58.9604 153.152C59.3859 154.431 61.0879 155.283 62.3644 154.431C65.7685 152.726 68.747 151.447 72.151 150.168C76.4061 148.464 80.6611 146.759 85.3417 145.054C88.3202 143.775 91.2987 142.923 94.2772 142.07C98.1068 140.792 102.362 139.513 106.191 138.234L120.233 133.12C125.765 131.415 131.722 129.284 137.253 127.579C141.083 126.3 144.487 125.022 147.891 123.743C149.593 122.891 150.444 121.186 150.444 119.055C150.444 118.202 150.018 116.924 149.593 115.219C146.614 105.416 143.21 95.1866 140.232 85.3836C139.381 82.4001 138.104 79.8428 137.253 76.8593C133.424 66.2039 129.169 55.1223 125.339 44.0407C124.488 41.4834 123.212 38.4999 122.786 35.5164C122.361 34.2377 121.935 33.3853 121.51 32.1067L118.956 25.7134C118.105 24.0086 116.829 23.1561 115.127 23.5824C114.276 23.5824 113.85 24.0086 112.999 24.0086C106.191 25.7134 99.3833 27.4183 93.0007 29.5494C82.7886 32.9591 72.151 36.3688 61.9389 39.7785C59.8114 40.631 58.1094 41.0572 56.4074 41.9096C47.8973 45.7456 39.3872 50.0077 30.8771 53.8437C30.4516 54.2699 29.6006 54.6961 29.1751 55.1223C28.7496 55.5485 28.3241 55.9747 28.3241 56.8272C28.3241 57.6796 28.3241 58.1058 28.7496 58.9582Z" fill="#B89559"/>
<path fill-rule="evenodd" clip-rule="evenodd" d="M47.8973 96.039C49.5993 101.58 51.3013 107.121 53.8543 112.661C54.7487 114.752 55.2253 116.633 55.7232 118.598C55.9359 119.437 56.1526 120.292 56.4074 121.186C56.7602 122.423 57.2595 123.587 57.7533 124.738C58.4504 126.363 59.1368 127.964 59.3859 129.71C59.3859 130.334 59.6139 130.73 59.903 131.231C60.0089 131.415 60.1229 131.613 60.2369 131.841C60.6624 132.694 61.5134 133.12 62.3644 133.12C62.7899 133.12 63.2154 133.12 64.0664 132.694C64.4919 132.551 64.9174 132.362 65.343 132.173C66.194 131.794 67.045 131.415 67.896 131.415C73.853 129.71 79.3846 128.005 84.9161 125.874C89.1712 124.595 93.4262 123.317 97.2558 121.612C100.234 120.333 103.213 119.374 106.191 118.415C109.17 117.456 112.148 116.497 115.127 115.219C119.54 114.114 123.952 112.471 128.249 110.872C130.582 110.004 132.88 109.149 135.126 108.399C135.551 108.186 136.083 107.973 136.615 107.76C137.147 107.547 137.679 107.334 138.104 107.121C138.955 106.694 139.381 105.842 139.381 104.563C139.381 103.711 139.381 102.432 138.955 101.154C137.679 96.8914 136.402 92.6293 134.7 88.3671C134.275 87.3016 133.956 86.3426 133.636 85.3836C133.317 84.4246 132.998 83.4656 132.573 82.4001C132.406 81.8985 132.239 81.3804 132.069 80.8524C131.371 78.6887 130.62 76.3577 129.594 74.302C128.318 70.4661 126.616 66.6301 124.914 62.7942C124.488 61.7287 124.063 60.5566 123.637 59.3845C123.212 58.2124 122.786 57.0403 122.361 55.9747C119.807 50.4339 117.68 44.4669 115.552 38.4999C114.701 36.795 114.276 34.664 114.276 32.9591C114.276 32.5329 114.276 32.1067 113.85 31.2542C113.85 30.4018 112.574 29.5494 111.723 29.5494C110.872 29.5494 110.446 29.5494 109.595 29.9756C107.893 30.4018 106.617 30.828 104.915 31.6805C103 32.3198 101.192 32.9591 99.3833 33.5984C97.5749 34.2377 95.7665 34.8771 93.8517 35.5164C92.8862 35.8218 91.9146 36.1272 90.9384 36.4341C83.7405 38.6967 76.2915 41.0382 69.1725 44.0407C68.5342 44.2538 68.0024 44.4669 67.4705 44.68C66.9386 44.8931 66.4067 45.1062 65.7684 45.3193C63.8537 45.9587 62.0453 46.598 60.2369 47.2373C58.4285 47.8766 56.6201 48.516 54.7053 49.1553C50.4503 50.4339 46.6208 52.1388 42.3657 54.2699C40.5577 55.1754 38.963 56.2947 37.2795 57.4764C36.5858 57.9633 35.8771 58.4608 35.1321 58.9582C33.4301 60.2369 33.0046 61.9418 33.8556 63.6466L35.1321 66.2039C37.2597 70.8923 38.9617 75.1544 40.2382 80.269C41.0892 83.6787 42.3657 86.6623 43.6422 89.6458C46.1953 91.3506 47.0463 93.4817 47.8973 96.039ZM39.8127 63.2204C39.3872 62.368 39.8127 61.0893 40.6637 60.2369C41.0892 59.8107 41.5147 59.3845 41.9402 59.3845C42.7912 58.9583 43.5359 58.532 44.2805 58.1058C45.0251 57.6796 45.7697 57.2534 46.6208 56.8272C50.4503 54.6961 54.7053 53.4175 58.9604 52.1388C60.6624 51.4995 62.3644 50.9667 64.0664 50.4339C65.7685 49.9012 67.4705 49.3684 69.1725 48.7291C69.598 48.516 70.0235 48.4094 70.449 48.3029C70.8745 48.1963 71.3 48.0898 71.7255 47.8766C80.2356 44.4669 89.1712 41.4834 98.1068 38.4999C101.511 37.6475 104.489 36.3688 107.468 35.0902C108.319 34.664 109.17 34.664 109.595 34.664C110.872 34.664 111.723 35.0902 112.148 35.9426C112.361 36.1557 112.574 36.4754 112.787 36.795C112.999 37.1147 113.212 37.4344 113.425 37.6475C114.276 39.3523 114.701 41.0572 115.127 42.7621C117.254 49.5815 119.382 56.401 121.935 62.7942C123.212 66.6301 124.914 70.8923 126.616 74.7282C127.892 77.7117 129.169 81.1215 130.02 84.105C130.445 85.3836 130.871 86.7688 131.296 88.1539C131.722 89.5391 132.147 90.9244 132.573 92.2031C132.998 93.4817 133.317 94.6538 133.636 95.8259C133.956 96.998 134.275 98.1701 134.7 99.4487V101.154C134.7 102.432 134.275 103.711 132.998 104.137C132.573 104.563 131.722 104.99 130.871 104.99C125.339 107.121 119.808 108.825 114.276 110.53C107.893 112.235 101.936 114.366 95.5537 116.924C92.5752 118.202 89.1712 119.481 86.1926 120.333C83.4269 121.186 80.7675 122.145 78.1081 123.104C75.4487 124.063 72.7893 125.022 70.0235 125.874C68.747 126.3 67.4705 126.727 66.6195 126.727C65.3429 126.727 64.4919 126.3 63.6409 125.448C62.3644 123.743 61.0879 121.612 60.6624 119.055C59.5506 114.229 57.7933 110.05 55.9527 105.673C55.68 105.024 55.4054 104.371 55.1308 103.711C54.7053 102.645 54.2798 101.473 53.8543 100.301C53.4288 99.1291 53.0033 97.957 52.5778 96.8914C51.3013 93.0555 50.0248 89.6458 48.3228 86.236C47.0463 84.105 46.1953 81.5477 45.7698 79.4166C44.9187 74.302 43.2167 69.1874 40.2382 64.499C39.8127 64.0728 39.8127 63.6466 39.8127 63.2204ZM84.0651 100.727C77.6826 99.4487 72.151 96.8914 66.6195 93.4817C62.7899 90.9244 60.6624 87.5147 60.2369 81.9739C59.8114 81.1215 59.8114 79.8428 59.8114 78.9904C59.8114 77.2855 60.6624 75.5807 61.9389 74.302C64.492 71.7447 68.3215 70.0399 72.151 69.6136H75.9806C78.5336 69.1874 80.6611 69.6136 83.2141 70.4661C84.0652 70.4661 84.9162 70.4661 85.7672 69.6136C85.9799 69.4005 86.1927 69.0809 86.4054 68.7612C86.6182 68.4416 86.8309 68.1219 87.0437 67.9088C88.7457 65.3515 90.8732 63.6466 93.4262 62.368C94.0645 62.1549 94.5964 61.8352 95.1283 61.5155C95.6601 61.1959 96.192 60.8762 96.8303 60.6631C98.5323 60.2369 100.234 59.8107 101.936 59.8107C106.617 59.8107 109.595 62.368 111.723 66.2039C112.148 67.0563 112.148 67.9088 112.148 68.7612C112.148 73.4496 111.723 78.5642 108.744 82.8263C107.893 84.105 107.042 85.4902 106.191 86.8754C105.34 88.2606 104.489 89.6458 103.638 90.9244C103.025 92.4591 102.192 93.7728 101.297 95.1838C100.949 95.7321 100.592 96.2951 100.234 96.8915C99.8088 97.5308 99.4897 98.1701 99.1706 98.8094C98.8514 99.4487 98.5323 100.088 98.1068 100.727C97.2558 101.58 96.4048 102.432 95.5538 102.858C94.7027 103.285 93.8517 103.711 93.0007 103.285C92.3625 103.072 91.8306 102.858 91.2987 102.645C90.7668 102.432 90.235 102.219 89.5967 102.006C88.7457 101.793 87.7883 101.58 86.8309 101.367C85.8735 101.154 84.9162 100.94 84.0651 100.727ZM72.5765 74.302C70.0235 74.302 67.896 75.1544 66.194 76.8593C64.9175 77.7117 64.4919 78.9904 64.0664 80.269C63.6409 84.105 64.9175 87.5147 68.3215 89.6458C72.5765 93.0555 77.2571 95.1866 82.3631 96.8915C83.6396 97.3177 84.8098 97.6373 85.9799 97.957C87.1501 98.2766 88.3202 98.5963 89.5967 99.0225C90.4477 99.4487 90.8732 99.4487 91.7242 99.4487C93.0007 99.875 94.2773 99.4487 95.1283 98.1701C95.341 97.957 95.5538 97.6373 95.7665 97.3177C95.9793 96.998 96.192 96.6783 96.4048 96.4652C97.6813 93.9079 99.3833 91.3506 101.085 88.7933C101.936 87.5147 102.787 86.1295 103.638 84.7443C104.489 83.3591 105.34 81.9739 106.191 80.6953C107.893 78.138 108.744 75.1544 108.744 71.7447C109.17 66.2039 103.638 62.7942 99.3833 64.499C97.2558 65.3515 95.1283 66.6301 93.0007 67.9088C92.4512 68.184 92.0791 68.637 91.6553 69.1529C91.4228 69.4359 91.1747 69.7379 90.8732 70.0399C90.0222 70.8923 89.5967 72.5971 90.0222 73.8758C90.235 74.302 90.3413 74.7282 90.4477 75.1544C90.5541 75.5807 90.6605 76.0069 90.8732 76.4331C90.8732 76.8593 90.8732 77.2855 90.4477 77.7117C89.5967 78.138 88.7457 78.5642 88.3202 78.138C87.8947 77.7117 87.0437 77.2855 86.1927 76.8593C82.7886 74.302 79.3846 73.4496 75.5551 73.8758C74.7041 74.302 73.4275 74.302 72.5765 74.302Z" fill="#B89559"/>
</svg>
